<?xml version="1.0" encoding="UTF-8"?>
<svg width="254px" height="356px" viewBox="0 0 254 356" version="1.1" xmlns="http://www.w3.org/2000/svg" xmlns:xlink="http://www.w3.org/1999/xlink">
    <title>icon-standard</title>
    <g id="Page-1" stroke="none" stroke-width="1" fill="none" fill-rule="evenodd">
        <g id="1.0-homepage" transform="translate(-204.000000, -2795.000000)">
            <g id="Group-5" transform="translate(0.000000, 2565.000000)">
                <g id="icon-standard" transform="translate(206.000000, 230.000000)">
                    <g id="Group-9" transform="translate(50.000000, 322.000000)">
                        <rect id="Rectangle" fill="#282828" x="0" y="0" width="151" height="34" rx="17"></rect>
                        <path d="M35.392,24.192 C38.112,24.192 39.92,22.832 39.92,20.544 L39.92,20.512 C39.92,18.416 38.32,17.584 35.744,17.024 C34.192,16.672 33.808,16.448 33.808,15.936 L33.808,15.904 C33.808,15.504 34.176,15.184 34.928,15.184 C35.92,15.184 37.04,15.568 38.064,16.288 L39.616,14.096 C38.4,13.12 36.912,12.608 35.008,12.608 C32.32,12.608 30.672,14.112 30.672,16.192 L30.672,16.224 C30.672,18.528 32.512,19.2 34.896,19.744 C36.416,20.096 36.784,20.352 36.784,20.816 L36.784,20.848 C36.784,21.328 36.336,21.616 35.504,21.616 C34.208,21.616 32.976,21.152 31.872,20.272 L30.144,22.336 C31.52,23.568 33.408,24.192 35.392,24.192 Z M46.7306667,24 L46.7306667,15.52 L50.0906667,15.52 L50.0906667,12.8 L40.2666667,12.8 L40.2666667,15.52 L43.6266667,15.52 L43.6266667,24 L46.7306667,24 Z M53.2853333,24 L54.0853333,22 L58.4053333,22 L59.2213333,24 L62.5493333,24 L57.7813333,12.72 L54.7893333,12.72 L50.0213333,24 L53.2853333,24 Z M57.5093333,19.584 L54.9973333,19.584 L56.2613333,16.4 L57.5093333,19.584 Z M66.176,24 L66.176,17.856 L70.96,24 L73.68,24 L73.68,12.8 L70.608,12.8 L70.608,18.72 L66,12.8 L63.104,12.8 L63.104,24 L66.176,24 Z M79.3866667,24 C83.4186667,24 85.7706667,21.6 85.7706667,18.368 L85.7706667,18.336 C85.7706667,15.104 83.4506667,12.8 79.4506667,12.8 L75.1306667,12.8 L75.1306667,24 L79.3866667,24 Z M79.4986667,21.248 L78.2346667,21.248 L78.2346667,15.552 L79.4986667,15.552 C81.3546667,15.552 82.5866667,16.592 82.5866667,18.384 L82.5866667,18.416 C82.5866667,20.224 81.3546667,21.248 79.4986667,21.248 Z M89.2053333,24 L90.0053333,22 L94.3253333,22 L95.1413333,24 L98.4693333,24 L93.7013333,12.72 L90.7093333,12.72 L85.9413333,24 L89.2053333,24 Z M93.4293333,19.584 L90.9173333,19.584 L92.1813333,16.4 L93.4293333,19.584 Z M102.128,24 L102.128,20.608 L103.488,20.608 L105.744,24 L109.328,24 L106.656,20.096 C108.048,19.504 108.96,18.368 108.96,16.656 L108.96,16.624 C108.96,15.52 108.624,14.656 107.968,14.016 C107.216,13.248 106.032,12.8 104.32,12.8 L99.024,12.8 L99.024,24 L102.128,24 Z M104.176,18.176 L102.128,18.176 L102.128,15.488 L104.16,15.488 C105.2,15.488 105.84,15.936 105.84,16.816 L105.84,16.848 C105.84,17.664 105.232,18.176 104.176,18.176 Z M114.250667,24 C118.282667,24 120.634667,21.6 120.634667,18.368 L120.634667,18.336 C120.634667,15.104 118.314667,12.8 114.314667,12.8 L109.994667,12.8 L109.994667,24 L114.250667,24 Z M114.362667,21.248 L113.098667,21.248 L113.098667,15.552 L114.362667,15.552 C116.218667,15.552 117.450667,16.592 117.450667,18.384 L117.450667,18.416 C117.450667,20.224 116.218667,21.248 114.362667,21.248 Z" id="STANDARD" fill="#F0F0F0" fill-rule="nonzero"></path>
                    </g>
                    <g id="Group-95">
                        <path d="M103.471127,75.3425314 C103.471127,75.3425314 118.219156,76.3972938 126.79576,76.0936501 C135.375027,75.7953335 140.489026,76.8447688 144.401769,79.8572342 C148.314511,82.867036 159.6026,95.5055402 169.231302,99.1199659 C178.862668,102.729065 184.131153,103.783827 184.131153,103.783827 L185.937034,139.448647 C185.937034,139.448647 187.742915,155.400597 187.742915,156.604517 C187.742915,157.808438 187.742915,168.491903 187.290113,171.501705 C185.034093,172.404645 178.111549,176.618368 156.592798,170.747922 C135.071383,164.880141 110.846473,153.442894 110.846473,153.442894 C110.846473,153.442894 96.2476028,147.575112 90.3771575,146.523013 C102.416365,82.1132538 103.471127,75.3425314 103.471127,75.3425314" id="Fill-1" fill="#FEAE3A"></path>
                        <path d="M75.3308118,80.609951 L52.7572981,102.578841 L50.6504368,105.290326 L51.404219,146.673769 L51.1405284,147.462178 C51.1405284,147.462178 57.2347113,143.059344 71.5672278,143.735883 L85.3377371,77.6001492 C85.3377371,77.6001492 81.7259749,76.6972086 76.7611336,78.7294907 L74.952589,80.8736416" id="Fill-3" fill="#FEAE3A"></path>
                        <path d="M50.9623375,156.502504 C52.440603,151.130141 49.2177179,107.346846 50.9623375,104.661997 C51.3885042,104.006765 53.1357873,102.200884 55.5303111,99.8489772" id="Stroke-5" stroke="#000000" stroke-width="1.30247177"></path>
                        <path d="M164.52589,48.8059344 C167.232048,49.969902 169.695824,51.3496165 172.021095,52.862508" id="Stroke-7" stroke="#000000" stroke-width="1.30247177"></path>
                        <path d="M78.2609738,75.691189 C77.8321436,76.7859045 77.086352,77.8300128 76.5323354,79.0419241 C76.3085979,79.5266887 76.0262625,79.9821543 75.640049,80.3550501 C73.0004794,82.8960686 62.0346793,93.4676646 55.5303111,99.8495099" id="Stroke-9" stroke="#000000" stroke-width="1.30247177"></path>
                        <path d="M89.1351481,58.1102173 C90.5148626,56.7225123 72.8981994,40.8904219 74.0621671,27.0213616 C74.799968,18.2609738 76.7496804,6.61863414 79.1655125,6.75447475 C81.5840081,6.88765182 83.4644684,15.6160771 87.7607607,23.0020776 C92.0597166,30.3907415 109.250213,37.9125826 109.250213,37.9125826" id="Stroke-11" stroke="#000000" stroke-width="0.652567654"></path>
                        <path d="M127.517047,38.3158427 C127.517047,38.3158427 126.217238,28.370179 123.11954,21.109365 C121.641274,17.6520882 112.209674,2.39265928 113.552099,0.778553164 C114.894524,-0.830225868 123.487108,2.05438952 128.188259,6.35068187 C132.88941,10.6469742 140.701577,16.416205 144.987215,22.6462284 C149.776263,29.6113893 161.586405,47.845994 161.586405,47.845994" id="Stroke-13" stroke="#000000" stroke-width="0.652567654"></path>
                        <path d="M164.52589,48.8059344 C163.505753,48.36645 162.384402,47.4475282 161.529405,47.7032282" id="Stroke-15" stroke="#000000" stroke-width="1.30247177"></path>
                        <path d="M127.360963,37.909919 C127.360963,37.909919 127.211805,37.9205732 126.085127,37.6568826 C124.130087,37.2040805 113.614426,36.3570744 109.152994,38.1523013" id="Stroke-17" stroke="#000000" stroke-width="1.30247177"></path>
                        <path d="M78.2609738,75.691189 C82.7543682,64.2699233 88.558225,58.5832623 89.2534093,57.9999467" id="Stroke-19" stroke="#000000" stroke-width="1.30247177"></path>
                        <path d="M168.359791,210.787876 C173.356595,207.687513 177.146814,204.45131 177.961858,204.613786" id="Stroke-21" stroke="#000000" stroke-width="1.30247177"></path>
                        <path d="M133.157628,218.955359 C121.74169,229.16205 97.1625293,241.920413 90.4477413,245.010121 C83.7329533,248.097166 83.7329533,255.48583 83.3307586,260.455998 C82.9285638,265.423503 80.5100682,276.301406 69.6295014,277.779672 C58.7515981,279.257937 52.8438632,275.49968 50.4253676,274.958981" id="Stroke-23" stroke="#000000" stroke-width="0.652567654"></path>
                        <path d="M50.9623375,156.502504 C49.484072,161.874867 48.3494034,164.586352 50.1712657,167.404379" id="Stroke-25" stroke="#000000" stroke-width="1.30247177"></path>
                        <path d="M50.3121671,166.904432 C50.3121671,166.904432 41.024398,184.973897 34.5786277,198.941509 C28.1301939,212.90912 21.9534413,223.789687 19.8039633,225.667483 C17.6544854,227.550607 20.7335393,231.492649 20.6003622,235.386746 C20.4645216,239.280844 24.6382911,253.74121 27.4589815,259.515768 C30.2796719,265.290326 37.8015129,272.580439 42.6358406,274.375666 C47.4701683,276.168229 48.0082037,274.420946 50.4240358,274.958981" id="Stroke-27" stroke="#000000" stroke-width="0.652567654"></path>
                        <path d="M249.798104,106.407682 C249.798104,106.407682 222.206478,85.3443959 205.122523,73.8991583 C192.2443,65.2719476 182.604944,59.7584168 172.02003,52.862508" id="Stroke-29" stroke="#000000" stroke-width="0.652567654"></path>
                        <path d="M168.359791,210.787876 C165.112934,212.804176 161.213509,214.863094 156.927871,216.133603 C146.049968,219.359152 133.158427,218.954294 133.158427,218.954294" id="Stroke-31" stroke="#000000" stroke-width="1.30247177"></path>
                        <path d="M249.798104,283.80114 C214.373002,229.496857 178.955892,205.122789 177.610803,204.851108" id="Stroke-33" stroke="#000000" stroke-width="0.652567654"></path>
                        <path d="M172.020829,52.8638398 C173.864,54.1103772 183.157096,60.8917537 185.892553,72.8057746 C188.939644,86.0595568 187.232314,126.183145 188.665299,138.134456 C190.098285,150.083102 197.622789,180.567334 177.611602,204.853505" id="Stroke-35" stroke="#000000" stroke-width="1.30247177"></path>
                        <path d="M172.020829,52.8638398 C171.813073,52.7226721 171.695877,52.6507564 171.695877,52.6507564" id="Stroke-37" stroke="#000000" stroke-width="0.652567654"></path>
                        <path d="M49.9414021,166.870605 C49.9414021,166.870605 54.9914767,161.450298 68.8259109,167.627051 C82.6576817,173.806467 107.101001,189.382857 110.728745,193.279619 C114.353825,197.173716 128.859472,206.623961 133.158427,218.956158" id="Stroke-39" stroke="#000000" stroke-width="1.30247177"></path>
                        <path d="M127.517047,38.3158427 C127.517047,38.3158427 129.679842,44.8734818 134.442254,51.1834115 C139.202003,57.4960047 150.617942,59.6321649 152.900597,61.7203814 C155.183252,63.8085979 161.89804,62.4075751 163.642659,60.6230023 C165.389942,58.8384296 164.518964,51.859951 161.530471,47.7314618" id="Stroke-41" stroke="#000000" stroke-width="0.652567654"></path>
                        <path d="M89.1351481,58.1102173 C89.1351481,58.1102173 103.96841,49.9331451 109.250213,37.9125826" id="Stroke-43" stroke="#000000" stroke-width="1.30247177"></path>
                        <path d="M77.9139143,75.7431281 C77.98583,75.7457916 78.1110164,75.7218197 78.2601747,75.6898572" id="Stroke-45" stroke="#000000" stroke-width="0.652567654"></path>
                        <path d="M93.6922012,73.938046 C93.6922012,73.938046 101.304603,70.7338057 107.236309,71.0001598 C113.168016,71.2691775 125.737268,71.9883337 128.834967,71.4476348 C131.932666,70.9122629 140.695717,71.8951097 145.652568,75.9250479" id="Stroke-47" stroke="#000000" stroke-width="0.647240571"></path>
                        <path d="M79.1649798,73.886107 C80.8589921,73.5345195 87.342052,71.3690603 93.6919348,73.9393778" id="Stroke-49" stroke="#000000" stroke-width="0.647240571"></path>
                        <path d="M183.979597,99.4731515 C166.357607,93.847752 167.223258,93.8770509 163.004208,91.2374814 C157.410771,87.7375879 150.61075,79.9547198 145.653899,75.9247816" id="Stroke-51" stroke="#000000" stroke-width="0.647240571"></path>
                        <path d="M92.2877157,78.5158747 C92.2877157,78.5158747 100.06792,75.3116343 106.132804,75.5779885 C112.195025,75.8470062 125.043948,76.5634988 128.210899,76.0254635 C131.37785,75.4874281 140.338003,76.4729384 145.404059,80.5028766" id="Stroke-53" stroke="#000000" stroke-width="0.655231195"></path>
                        <path d="M77.4366077,78.4639356 C79.1679097,78.1123482 85.7974643,75.946889 92.2885148,78.5172065" id="Stroke-55" stroke="#000000" stroke-width="0.655231195"></path>
                        <path d="M184.581558,104.051247 C166.568027,98.425847 167.454986,98.4524824 163.140049,95.8129128 C157.421426,92.3156829 150.472246,84.5328148 145.403527,80.5028766" id="Stroke-57" stroke="#000000" stroke-width="0.655231195"></path>
                        <line x1="164.52589" y1="48.8059344" x2="164.52589" y2="48.8059344" id="Stroke-59" stroke="#000000" stroke-width="0.652567654"></line>
                        <path d="M184.278713,101.280897 C183.580865,87.6622097 185.602493,75.0423503 180.163541,65.3763584 C176.352014,58.600309 165.215747,49.1181014 164.52589,48.8064671" id="Stroke-61" stroke="#000000" stroke-width="0.652567654"></path>
                        <path d="M184.278713,101.280897 C184.387918,103.385095 185.17899,137.45179 187.056787,150.258097 C188.939911,163.059077 187.810569,193.300927 173.467398,207.369753" id="Stroke-63" stroke="#000000" stroke-width="0.652567654"></path>
                        <path d="M49.2962924,161.834914 C53.8030045,158.287076 61.0931174,159.52296 64.2760494,160.977253 C67.4563179,162.434211 84.3671426,169.527221 94.291498,175.269817 C105.054869,181.49984 120.21841,193.256712 125.388344,199.739772 C130.558278,206.222832 141.241743,219.053111 141.241743,219.053111" id="Stroke-65" stroke="#000000" stroke-width="0.641913488"></path>
                        <line x1="55.5313765" y1="99.850309" x2="55.5313765" y2="99.850309" id="Stroke-67" stroke="#000000" stroke-width="0.652567654"></line>
                        <path d="M127.475495,38.3078521 C127.475495,38.3078521 114.490731,50.7492542 94.2078628,72.7900597 C94.2078628,72.7900597 94.3596846,60.9133284 109.507245,37.9109844" id="Stroke-69" stroke="#000000" stroke-width="0.652567654"></path>
                        <line x1="168.359791" y1="210.787876" x2="168.357128" y2="210.795866" id="Stroke-71" stroke="#000000" stroke-width="0.652567654"></line>
                        <path d="M86.5091626,239.525091 C82.7482421,238.805934 72.3604304,259.31254 71.1964628,262.902994 C70.0324952,266.498775 65.5577456,273.368048 61.6183678,274.960846 C57.67899,276.55098 50.4261666,274.960846 50.4261666,274.960846" id="Stroke-73" stroke="#000000" stroke-width="0.652567654"></path>
                        <path d="M50.9623375,246.238547 C52.6643405,247.849989 56.1562433,245.703175 58.9316535,239.507778 C61.7070637,233.309717 59.3791285,226.363201 55.5276476,224.661198 C52.8374707,223.470595 48.3414127,223.643725 46.4423077,224.208395 C45.6246005,224.450778 45.9282442,225.127317 46.399691,225.428297 C48.6956638,226.885255 48.7995419,226.855956 49.3162689,228.395483 C49.9049116,230.142766 48.2774877,234.601534 45.7684317,236.122416 C44.4499787,236.924142 43.9492329,238.048157 43.7707756,238.932453 C43.6562433,239.497123 44.0424569,239.992542 44.5964735,240.160345 C46.3863733,240.693053 49.5453335,244.896122 50.9623375,246.238547 Z" id="Stroke-75" stroke="#000000" stroke-width="0.652567654"></path>
                        <path d="M124.087471,41.3331025 C124.087471,41.3331025 126.495312,50.362508 132.363094,56.8322502 C132.363094,56.8322502 136.877797,62.700032 157.043469,66.7645962 C174.950458,69.4734179 166.975815,50.6634882 166.975815,50.6634882" id="Stroke-77" stroke="#000000" stroke-width="0.655231195"></path>
                        <polyline id="Stroke-79" stroke="#505050" stroke-width="2.71414873" points="0.345994034 289.237428 0.345994034 49.6971553 83.1581611 49.6971553"></polyline>
                        <polyline id="Stroke-81" stroke="#505050" stroke-width="2.71414873" points="166.800554 50.0130514 224.38632 50.0130514 249.969636 50.0130514 249.969636 289.236363 0.345194971 289.236363"></polyline>
                        <path d="M51.0520989,152.772747 C51.0520989,152.772747 67.2277861,140.339335 109.993608,158.209035 C152.762092,176.078734 172.200618,182.700298 186.599723,176.472938" id="Stroke-83" stroke="#000000" stroke-width="0.679203068"></path>
                        <path d="M51.0534306,147.807106 C51.0534306,147.807106 67.2291178,135.373695 109.994939,153.243394 C152.763424,171.113094 172.745312,177.734658 187.144417,171.507298" id="Stroke-85" stroke="#000000" stroke-width="0.679203068"></path>
                        <line x1="85.2620925" y1="77.2986363" x2="71.7206478" y2="143.812593" id="Stroke-87" stroke="#000000" stroke-width="0.655231195"></line>
                        <line x1="89.3991051" y1="77.8630407" x2="75.9322395" y2="143.812327" id="Stroke-89" stroke="#000000" stroke-width="0.655231195"></line>
                        <line x1="99.2574046" y1="76.2452056" x2="86.6162369" y2="145.771628" id="Stroke-91" stroke="#000000" stroke-width="0.655231195"></line>
                        <line x1="103.471127" y1="75.9434264" x2="90.5289793" y2="146.521948" id="Stroke-93" stroke="#000000" stroke-width="0.655231195"></line>
                    </g>
                </g>
            </g>
        </g>
    </g>
</svg>