<?xml version="1.0" encoding="UTF-8"?>
<svg width="140px" height="140px" viewBox="0 0 140 140" version="1.1" xmlns="http://www.w3.org/2000/svg" xmlns:xlink="http://www.w3.org/1999/xlink">
    <title>icon-ultraviolet</title>
    <g id="icon-ultraviolet" stroke="none" stroke-width="1" fill="none" fill-rule="evenodd">
        <g transform="translate(5.000000, 1.000000)">
            <circle id="Oval" fill="#6F26AB" cx="65.5" cy="69.5" r="44.5"></circle>
            <g id="Group-11" fill="#812EC6">
                <path d="M106.446189,86.805562 C108.815377,81.2945402 110,75.5260926 110,69.5000115 C110,63.4739305 108.828298,57.7183351 106.48478,52.2331102 C104.141319,46.7478275 100.973826,42.0094525 96.9821839,38.0178119 C92.9905997,34.0261713 88.2522231,30.8586787 82.7669387,28.5152188 C77.2816543,26.1717588 71.5260571,25 65.499974,25 C59.4739487,25 53.71834,26.1717588 48.2330728,28.5152188 C42.7478,30.8586787 38.0094234,34.0261713 34.017793,38.0178119 C30.0261627,42.0094525 26.8586633,46.7478275 24.5151911,52.2331102 C22.1717188,57.7183351 21,63.4739305 21,69.5000115 C21,75.5260926 22.1717188,81.2816649 24.5151911,86.766936 C26.8586633,92.2522013 30.0261627,96.9905822 34.017793,100.982205 C38.0094234,104.973834 42.7478,108.141339 48.2330728,110.48481 C53.71834,112.828282 59.4739487,114 65.499974,114 C71.5260571,114 77.2816543,112.828282 82.7669387,110.48481 C88.2522231,108.141339 92.9905997,104.973834 96.9821839,100.982205 C100.973826,96.9905822 104.128456,92.2650766 106.446189,86.805562 Z M130.86302,90.9592439 C130.658408,91.7353548 130.146993,92.2527466 129.328661,92.5114541 L106.927279,99.9620379 L106.927279,123.710777 C106.927279,124.538625 106.594813,125.211239 105.92994,125.728642 C105.16276,126.246052 104.421185,126.349531 103.705159,126.039087 L81.3037195,118.743719 L67.4946579,137.991067 C66.9831857,138.663692 66.318312,139 65.4999794,139 C64.6817041,139 64.0168303,138.663692 63.5053582,137.991067 L49.6962736,118.743719 L27.2948631,126.039087 C26.5788364,126.349531 25.8372447,126.246052 25.0700708,125.728642 C24.4051856,125.211239 24.072743,124.538625 24.072743,123.710777 L24.072743,99.9620379 L1.6713387,92.5114541 C0.85301872,92.2527466 0.341576092,91.7353548 0.136996039,90.9592439 C-0.118729056,90.0796592 -0.0164405758,89.3294341 0.443864629,88.7085512 L14.2529524,69.4612031 L0.443864629,50.2138493 C-0.0164405758,49.5412353 -0.118729056,48.7910276 0.136996039,47.9631682 C0.341576092,47.1870573 0.85301872,46.6696307 1.6713387,46.4109464 L24.072743,38.9603858 L24.072743,15.2116118 C24.072743,14.3838104 24.4051856,13.7111384 25.0700708,13.1937698 C25.8372447,12.6763432 26.5788364,12.5729042 27.2948631,12.883337 L49.6962736,20.1787101 L63.5053582,0.931356286 C63.9656774,0.310432779 64.6305511,0 65.4999794,0 C66.3694649,0 67.0343387,0.310432779 67.4946579,0.931356286 L81.3037195,20.1787101 L103.705159,12.883337 C104.421185,12.5729042 105.16276,12.6763432 105.92994,13.1937698 C106.594813,13.7111384 106.927279,14.3838104 106.927279,15.2116118 L106.927279,38.9603858 L129.328661,46.4109464 C130.146993,46.6696307 130.658408,47.1870573 130.86302,47.9631682 C131.118727,48.7910276 131.016422,49.5412353 130.55616,50.2138493 L116.747041,69.4612031 L130.55616,88.7085512 C131.016422,89.3294341 131.118727,90.0796592 130.86302,90.9592439 Z" id="Fill-1"></path>
            </g>
            <path d="M33.1506667,76 C35.6786667,76 37.3426667,74.976 37.3426667,72.928 L37.3426667,72.896 C37.3426667,71.392 36.5426667,70.64 35.2466667,70.144 C36.0466667,69.696 36.7186667,68.992 36.7186667,67.728 L36.7186667,67.696 C36.7186667,65.936 35.3106667,64.8 33.0226667,64.8 L27.8226667,64.8 L27.8226667,76 L33.1506667,76 Z M32.4946667,69.328 L30.2226667,69.328 L30.2226667,66.96 L32.6546667,66.96 C33.6946667,66.96 34.2706667,67.376 34.2706667,68.112 L34.2706667,68.144 C34.2706667,68.976 33.5826667,69.328 32.4946667,69.328 Z M33.1506667,73.84 L30.2226667,73.84 L30.2226667,71.376 L33.0706667,71.376 C34.3346667,71.376 34.8946667,71.84 34.8946667,72.592 L34.8946667,72.624 C34.8946667,73.456 34.2386667,73.84 33.1506667,73.84 Z M46.8893333,76 L46.8893333,73.76 L41.3053333,73.76 L41.3053333,64.8 L38.8413333,64.8 L38.8413333,76 L46.8893333,76 Z M53.652,76.192 C57.108,76.192 59.62,73.584 59.62,70.4 L59.62,70.368 C59.62,67.184 57.14,64.608 53.684,64.608 C50.228,64.608 47.716,67.216 47.716,70.4 L47.716,70.432 C47.716,73.616 50.196,76.192 53.652,76.192 Z M53.684,73.92 C51.7,73.92 50.292,72.32 50.292,70.4 L50.292,70.368 C50.292,68.448 51.668,66.88 53.652,66.88 C55.636,66.88 57.044,68.48 57.044,70.4 L57.044,70.432 C57.044,72.352 55.668,73.92 53.684,73.92 Z M66.5266667,76.192 C68.6866667,76.192 69.9666667,75.424 71.1186667,74.192 L69.5506667,72.608 C68.6706667,73.408 67.8866667,73.92 66.6066667,73.92 C64.6866667,73.92 63.3586667,72.32 63.3586667,70.4 L63.3586667,70.368 C63.3586667,68.448 64.7186667,66.88 66.6066667,66.88 C67.7266667,66.88 68.6066667,67.36 69.4706667,68.144 L71.0386667,66.336 C69.9986667,65.312 68.7346667,64.608 66.6226667,64.608 C63.1826667,64.608 60.7826667,67.216 60.7826667,70.4 L60.7826667,70.432 C60.7826667,73.648 63.2306667,76.192 66.5266667,76.192 Z M75.0173333,76 L75.0173333,72.576 L76.3133333,71.232 L79.7853333,76 L82.7453333,76 L77.9773333,69.552 L82.5373333,64.8 L79.5613333,64.8 L75.0173333,69.696 L75.0173333,64.8 L72.5533333,64.8 L72.5533333,76 L75.0173333,76 Z M92.228,76 L92.228,73.808 L86.148,73.808 L86.148,71.456 L91.428,71.456 L91.428,69.264 L86.148,69.264 L86.148,66.992 L92.148,66.992 L92.148,64.8 L83.7,64.8 L83.7,76 L92.228,76 Z M98.2546667,76 C101.774667,76 104.206667,73.552 104.206667,70.4 L104.206667,70.368 C104.206667,67.216 101.774667,64.8 98.2546667,64.8 L93.8866667,64.8 L93.8866667,76 L98.2546667,76 Z M98.2546667,73.776 L96.3506667,73.776 L96.3506667,67.024 L98.2546667,67.024 C100.270667,67.024 101.630667,68.416 101.630667,70.4 L101.630667,70.432 C101.630667,72.416 100.270667,73.776 98.2546667,73.776 Z" id="BLOCKED" fill="#CC8EFF" fill-rule="nonzero"></path>
        </g>
    </g>
</svg>