<?xml version="1.0" encoding="UTF-8"?>
<svg width="253px" height="355px" viewBox="0 0 253 355" version="1.1" xmlns="http://www.w3.org/2000/svg" xmlns:xlink="http://www.w3.org/1999/xlink">
    <title>icon-lefteye</title>
    <g id="Page-1" stroke="none" stroke-width="1" fill="none" fill-rule="evenodd">
        <g id="1.0-homepage" transform="translate(-595.000000, -2796.000000)">
            <g id="Group-5" transform="translate(0.000000, 2565.000000)">
                <g id="icon-lefteye" transform="translate(597.000000, 231.000000)">
                    <g id="Group-8" transform="translate(25.000000, 321.000000)">
                        <rect id="Rectangle" fill="#282828" x="0" y="0" width="201" height="34" rx="17"></rect>
                        <path d="M43.52,24 L43.52,21.28 L38.096,21.28 L38.096,12.8 L34.992,12.8 L34.992,24 L43.52,24 Z M53.4026667,24 L53.4026667,21.36 L47.3866667,21.36 L47.3866667,19.584 L52.7626667,19.584 L52.7626667,17.136 L47.3866667,17.136 L47.3866667,15.44 L53.3226667,15.44 L53.3226667,12.8 L44.3146667,12.8 L44.3146667,24 L53.4026667,24 Z M57.5573333,24 L57.5573333,20 L62.8533333,20 L62.8533333,17.424 L57.5573333,17.424 L57.5573333,15.52 L63.4133333,15.52 L63.4133333,12.8 L54.4533333,12.8 L54.4533333,24 L57.5573333,24 Z M70.128,24 L70.128,15.52 L73.488,15.52 L73.488,12.8 L63.664,12.8 L63.664,15.52 L67.024,15.52 L67.024,24 L70.128,24 Z M87.3013333,24 L87.3013333,21.36 L81.2853333,21.36 L81.2853333,19.584 L86.6613333,19.584 L86.6613333,17.136 L81.2853333,17.136 L81.2853333,15.44 L87.2213333,15.44 L87.2213333,12.8 L78.2133333,12.8 L78.2133333,24 L87.3013333,24 Z M94.704,24 L94.704,19.76 L98.96,12.8 L95.488,12.8 L93.168,16.88 L90.864,12.8 L87.328,12.8 L91.584,19.808 L91.584,24 L94.704,24 Z M108.474667,24 L108.474667,21.36 L102.458667,21.36 L102.458667,19.584 L107.834667,19.584 L107.834667,17.136 L102.458667,17.136 L102.458667,15.44 L108.394667,15.44 L108.394667,12.8 L99.3866667,12.8 L99.3866667,24 L108.474667,24 Z M116.528,24 L116.528,20.8 L118.064,20.8 C120.848,20.8 122.88,19.408 122.88,16.768 L122.88,16.736 C122.88,14.256 121.056,12.8 118.224,12.8 L113.424,12.8 L113.424,24 L116.528,24 Z M118,18.368 L116.528,18.368 L116.528,15.408 L117.984,15.408 C119.104,15.408 119.776,15.92 119.776,16.88 L119.776,16.912 C119.776,17.792 119.104,18.368 118,18.368 Z M126.026667,24 L126.826667,22 L131.146667,22 L131.962667,24 L135.290667,24 L130.522667,12.72 L127.530667,12.72 L122.762667,24 L126.026667,24 Z M130.250667,19.584 L127.738667,19.584 L129.002667,16.4 L130.250667,19.584 Z M141.685333,24 L141.685333,15.52 L145.045333,15.52 L145.045333,12.8 L135.221333,12.8 L135.221333,15.52 L138.581333,15.52 L138.581333,24 L141.685333,24 Z M151.264,24.224 C153.744,24.224 155.168,23.152 156.224,21.696 L153.888,20.032 C153.216,20.848 152.528,21.392 151.36,21.392 C149.792,21.392 148.688,20.08 148.688,18.4 L148.688,18.368 C148.688,16.736 149.792,15.408 151.36,15.408 C152.432,15.408 153.168,15.92 153.808,16.72 L156.144,14.912 C155.152,13.536 153.68,12.576 151.392,12.576 C148,12.576 145.488,15.136 145.488,18.4 L145.488,18.432 C145.488,21.776 148.064,24.224 151.264,24.224 Z M160.122667,24 L160.122667,19.744 L164.106667,19.744 L164.106667,24 L167.210667,24 L167.210667,12.8 L164.106667,12.8 L164.106667,16.992 L160.122667,16.992 L160.122667,12.8 L157.018667,12.8 L157.018667,24 L160.122667,24 Z" id="LEFTEYEPATCH" fill="#F0F0F0" fill-rule="nonzero"></path>
                    </g>
                    <g id="Group-95">
                        <path d="M103.009569,75.1895268 C103.009569,75.1895268 117.727804,76.2421584 126.287081,75.9417863 C134.849016,75.6414141 139.952685,76.6913876 143.857523,79.695109 C147.76236,82.6988304 159.027645,95.3144604 168.636895,98.9189261 C178.248804,102.523392 183.506645,103.576023 183.506645,103.576023 L185.308878,139.166135 C185.308878,139.166135 187.111111,155.085859 187.111111,156.287347 C187.111111,157.488836 187.111111,168.153376 186.659224,171.157097 C184.407762,172.055556 177.499203,176.260766 156.023923,170.404838 C134.545986,164.546252 110.370016,153.132111 110.370016,153.132111 C110.370016,153.132111 95.800638,147.276183 89.9420521,146.226209 C101.956938,81.9492291 103.009569,75.1895268 103.009569,75.1895268" id="Fill-1" fill="#282828"></path>
                        <path d="M74.9261031,80.4463052 L52.3981925,102.373472 L50.2955875,105.076821 L51.0478469,146.376661 L50.784689,147.166135 C50.784689,147.166135 56.8665603,142.769537 71.1701223,143.447368 L84.9128123,77.4425837 C84.9128123,77.4425837 81.3083466,76.5414673 76.3535354,78.5696438 L74.5486443,80.7094631" id="Fill-3" fill="#FEAE3A"></path>
                        <path d="M50.6068581,156.18554 C52.0821372,150.82403 48.8657629,107.131845 50.6068581,104.449761 C51.0321637,103.795853 52.7759171,101.99362 55.1656034,99.6491228" id="Stroke-5" stroke="#000000" stroke-width="1.29984051"></path>
                        <path d="M163.940989,48.7065391 C166.64168,49.8681552 169.100478,51.2450824 171.421053,52.7549176" id="Stroke-7" stroke="#000000" stroke-width="1.29984051"></path>
                        <path d="M77.8503456,75.5401382 C77.4223817,76.6299841 76.6780968,77.671983 76.1251994,78.8841042 C75.9019139,79.3652313 75.6201489,79.8224349 75.2347156,80.1919192 C72.6004785,82.7304625 61.6568315,93.2780436 55.1656034,99.6496544" id="Stroke-9" stroke="#000000" stroke-width="1.29984051"></path>
                        <path d="M88.7025518,57.9920255 C90.079479,56.6071239 72.4984051,40.8096757 73.6600213,26.9659755 C74.3963317,18.2232855 76.3421053,6.60446571 78.7530569,6.7400319 C81.1666667,6.87559809 83.043328,15.5863902 87.330941,22.9574694 C91.6212121,30.3312068 108.77698,37.835194 108.77698,37.835194" id="Stroke-11" stroke="#000000" stroke-width="0.651249335"></path>
                        <path d="M127.006911,38.2376396 C127.006911,38.2376396 125.709729,28.312068 122.618288,21.0659224 C121.143009,17.61563 111.730463,2.38702818 113.070175,0.778841042 C114.409888,-0.829346093 122.985114,2.04944179 127.676768,6.33705476 C132.368421,10.6246677 140.164806,16.3822435 144.441786,22.6023392 C149.221159,29.5507709 161.007443,47.748538 161.007443,47.748538" id="Stroke-13" stroke="#000000" stroke-width="0.651249335"></path>
                        <path d="M163.940989,48.7065391 C162.922913,48.2706007 161.803828,47.3508772 160.950558,47.6060606" id="Stroke-15" stroke="#000000" stroke-width="1.29984051"></path>
                        <path d="M126.851143,37.8325359 C126.851143,37.8325359 126.702286,37.8431685 125.577884,37.5826688 C123.626794,37.1281233 113.132376,36.2828283 108.679957,38.0744285" id="Stroke-17" stroke="#000000" stroke-width="1.29984051"></path>
                        <path d="M77.8503456,75.5401382 C82.3346624,64.1392876 88.1267943,58.466773 88.8205742,57.8819777" id="Stroke-19" stroke="#000000" stroke-width="1.29984051"></path>
                        <path d="M167.767145,210.363902 C172.753854,207.267145 176.536417,204.03748 177.349814,204.202286" id="Stroke-21" stroke="#000000" stroke-width="1.29984051"></path>
                        <path d="M132.636098,218.512228 C121.243222,228.698299 96.7137161,241.430888 90.0124934,244.514354 C83.3112706,247.59782 83.3112706,254.9689 82.9098884,259.929027 C82.5085061,264.886497 80.0948963,275.745082 69.2363105,277.220362 C58.3803828,278.695641 52.4845827,274.942318 50.0709729,274.402711" id="Stroke-23" stroke="#000000" stroke-width="0.651249335"></path>
                        <path d="M50.6068581,156.18554 C49.1315789,161.549708 47.9992026,164.255715 49.8173844,167.065391" id="Stroke-25" stroke="#000000" stroke-width="1.29984051"></path>
                        <path d="M49.9580011,166.566454 C49.9580011,166.566454 40.6889952,184.602073 34.2562467,198.541467 C27.82084,212.480861 21.6565657,223.336789 19.5114301,225.21345 C17.3662945,227.09277 20.4391281,231.024189 20.3062201,234.91042 C20.1706539,238.799309 24.3359915,253.227804 27.1509835,258.990696 C29.9659755,264.753589 37.4726209,272.028974 42.2971823,273.820574 C47.1217438,275.609516 47.6586922,273.868421 50.0696438,274.402711" id="Stroke-27" stroke="#000000" stroke-width="0.651249335"></path>
                        <path d="M249.040936,106.191919 C249.040936,106.191919 221.505051,85.1738437 204.455609,73.7490696 C191.603402,65.1392876 181.983519,59.6368953 171.419989,52.7549176" id="Stroke-29" stroke="#000000" stroke-width="0.651249335"></path>
                        <path d="M167.767145,210.363902 C164.526847,212.37613 160.6353,214.430888 156.35832,215.69883 C145.502392,218.915205 132.636895,218.511164 132.636895,218.511164" id="Stroke-31" stroke="#000000" stroke-width="1.29984051"></path>
                        <path d="M249.040936,283.229665 C213.6874,229.03243 178.341839,204.707602 176.999468,204.439128" id="Stroke-33" stroke="#000000" stroke-width="0.651249335"></path>
                        <path d="M171.420787,52.7562467 C173.260234,54.0002658 182.534556,60.7679426 185.264487,72.6605529 C188.305423,85.8849016 186.601542,125.927432 188.031632,137.854599 C189.461722,149.779107 196.971026,180.201754 177.000266,204.438862" id="Stroke-35" stroke="#000000" stroke-width="1.29984051"></path>
                        <path d="M171.420787,52.7562467 C171.21345,52.6180223 171.096491,52.5435938 171.096491,52.5435938" id="Stroke-37" stroke="#000000" stroke-width="0.651249335"></path>
                        <path d="M49.5879851,166.532695 C49.5879851,166.532695 54.6278575,161.123339 68.4343434,167.287613 C82.2381712,173.454545 106.632111,189.002127 110.252525,192.888357 C113.870282,196.774588 128.346624,206.205742 132.636895,218.513025" id="Stroke-39" stroke="#000000" stroke-width="1.29984051"></path>
                        <path d="M127.006911,38.2376396 C127.006911,38.2376396 129.165338,44.7820308 133.918129,51.0818713 C138.668262,57.3790537 150.061138,59.5108985 152.339181,61.5948963 C154.617225,63.6788942 161.318448,62.2807018 163.059543,60.4997342 C164.803296,58.7214248 163.934078,51.7570441 160.951621,47.6342371" id="Stroke-41" stroke="#000000" stroke-width="0.651249335"></path>
                        <path d="M88.7025518,57.9920255 C88.7025518,57.9920255 103.505848,49.8341308 108.77698,37.835194" id="Stroke-43" stroke="#000000" stroke-width="1.29984051"></path>
                        <path d="M77.5039872,75.5893142 C77.5757576,75.5919724 77.7006911,75.5680489 77.8495481,75.5388091" id="Stroke-45" stroke="#000000" stroke-width="0.651249335"></path>
                        <path d="M93.2503987,73.7878788 C93.2503987,73.7878788 100.847422,70.5901116 106.767145,70.8559277 C112.686869,71.1270601 125.230728,71.8421053 128.322169,71.3024987 C131.41361,70.7682084 140.158958,71.7517278 145.105795,75.7735247" id="Stroke-47" stroke="#000000" stroke-width="0.645933014"></path>
                        <path d="M78.7525253,73.7360447 C80.4431154,73.3851675 86.9130781,71.2240829 93.2501329,73.7892079" id="Stroke-49" stroke="#000000" stroke-width="0.645933014"></path>
                        <path d="M183.355396,99.2740564 C165.769006,93.6573631 166.632908,93.6866029 162.422382,91.0523658 C156.840245,87.5595428 150.053961,79.7950558 145.107124,75.7732589" id="Stroke-51" stroke="#000000" stroke-width="0.645933014"></path>
                        <path d="M91.8487507,78.3564593 C91.8487507,78.3564593 99.6132376,75.1586922 105.665869,75.4245082 C111.715843,75.6929825 124.538809,76.4106858 127.699362,75.8710792 C130.859915,75.3367889 139.801967,76.3176502 144.857788,80.3394471" id="Stroke-53" stroke="#000000" stroke-width="0.653907496"></path>
                        <path d="M77.0276449,78.3046252 C78.7554492,77.953748 85.3716108,75.7926635 91.8495481,78.3577884" id="Stroke-55" stroke="#000000" stroke-width="0.653907496"></path>
                        <path d="M183.95614,103.840245 C165.979001,98.2262095 166.864168,98.2554492 162.557948,95.6212121 C156.850877,92.1283892 149.915736,84.361244 144.857257,80.3394471" id="Stroke-57" stroke="#000000" stroke-width="0.653907496"></path>
                        <line x1="163.940989" y1="48.7065391" x2="163.940989" y2="48.7065391" id="Stroke-59" stroke="#000000" stroke-width="0.651249335"></line>
                        <path d="M183.653907,101.075492 C182.957469,87.4843169 184.975013,74.8899522 179.547049,65.2461457 C175.743222,58.4811271 164.629452,49.0180755 163.940989,48.7070707" id="Stroke-61" stroke="#000000" stroke-width="0.651249335"></path>
                        <path d="M183.653907,101.075492 C183.762892,103.175439 184.552366,137.17597 186.426369,149.953748 C188.305688,162.728868 187.178628,192.909623 172.864434,206.950027" id="Stroke-63" stroke="#000000" stroke-width="0.651249335"></path>
                        <path d="M48.9441786,161.509835 C53.4417863,157.966507 60.7171717,159.199894 63.8936736,160.651249 C67.0675173,162.105263 83.9441786,169.183945 93.8484848,174.917597 C104.590112,181.135035 119.72302,192.868155 124.882509,199.33546 C130.041999,205.805423 140.703881,218.61244 140.703881,218.61244" id="Stroke-65" stroke="#000000" stroke-width="0.640616693"></path>
                        <line x1="55.1666667" y1="99.6504519" x2="55.1666667" y2="99.6504519" id="Stroke-67" stroke="#000000" stroke-width="0.651249335"></line>
                        <path d="M126.965444,38.2296651 C126.965444,38.2296651 114.006911,50.645933 93.7650186,72.6422116 C93.7650186,72.6422116 93.9165338,60.7921318 109.033493,37.8335991" id="Stroke-69" stroke="#000000" stroke-width="0.651249335"></path>
                        <line x1="167.767145" y1="210.363902" x2="167.764487" y2="210.371877" id="Stroke-71" stroke="#000000" stroke-width="0.651249335"></line>
                        <path d="M86.0818713,239.040404 C82.3285486,238.325359 71.9617225,258.787879 70.8001063,262.373737 C69.6384902,265.959596 65.1727804,272.81765 61.241361,274.404572 C57.3099415,275.991494 50.0717703,274.404572 50.0717703,274.404572" id="Stroke-73" stroke="#000000" stroke-width="0.651249335"></path>
                        <path d="M50.6068581,245.74269 C52.3054226,247.348219 55.7902711,245.205742 58.5600744,239.02286 C61.3298777,232.839979 59.0066454,225.904838 55.1629452,224.206273 C52.4782031,223.020734 47.9912281,223.190856 46.0959596,223.757044 C45.2799043,223.996279 45.5829346,224.671451 46.053429,224.974482 C48.3447634,226.425837 48.4484317,226.399256 48.9641148,227.933014 C49.5515683,229.676768 47.9274322,234.126528 45.423445,235.644338 C44.1076555,236.444444 43.6079213,237.566188 43.4298246,238.448698 C43.3155237,239.012228 43.7009569,239.506645 44.2538543,239.67411 C46.0401382,240.205742 49.1927166,244.400319 50.6068581,245.74269 Z" id="Stroke-75" stroke="#000000" stroke-width="0.651249335"></path>
                        <path d="M123.584264,41.2488038 C123.584264,41.2488038 125.987241,50.2626263 131.843169,56.7166401 C131.843169,56.7166401 136.348751,62.5752259 156.473684,66.6315789 C174.344498,69.3322701 166.385965,50.5603402 166.385965,50.5603402" id="Stroke-77" stroke="#000000" stroke-width="0.653907496"></path>
                        <polyline id="Stroke-79" stroke="#505050" stroke-width="2.7086656" points="0.0927698033 288.652313 0.0927698033 49.5959596 82.7376396 49.5959596"></polyline>
                        <polyline id="Stroke-81" stroke="#505050" stroke-width="2.7086656" points="166.211058 49.9136098 223.680489 49.9136098 249.212121 49.9136098 249.212121 288.650984 0.0919723551 288.650984"></polyline>
                        <path d="M50.6964381,152.463052 C50.6964381,152.463052 66.8394471,140.054758 109.518873,157.891015 C152.200957,175.724615 171.600213,182.330144 185.970229,176.115364" id="Stroke-83" stroke="#000000" stroke-width="0.677830941"></path>
                        <path d="M50.6977671,147.507709 C50.6977671,147.507709 66.8407762,135.099415 109.520202,152.935673 C152.202286,170.769272 172.143806,177.374801 186.513822,171.160021" id="Stroke-85" stroke="#000000" stroke-width="0.677830941"></path>
                        <line x1="84.8373206" y1="77.14168" x2="71.3232323" y2="143.523923" id="Stroke-87" stroke="#000000" stroke-width="0.653907496"></line>
                        <line x1="88.9659755" y1="77.7076023" x2="75.5263158" y2="143.523658" id="Stroke-89" stroke="#000000" stroke-width="0.653907496"></line>
                        <line x1="98.8043594" y1="76.0903775" x2="86.1887294" y2="145.476342" id="Stroke-91" stroke="#000000" stroke-width="0.653907496"></line>
                        <line x1="103.009569" y1="75.791866" x2="90.0935673" y2="146.225146" id="Stroke-93" stroke="#000000" stroke-width="0.653907496"></line>
                    </g>
                </g>
            </g>
        </g>
    </g>
</svg>