<?xml version="1.0" encoding="UTF-8"?>
<svg width="250px" height="354px" viewBox="0 0 250 354" version="1.1" xmlns="http://www.w3.org/2000/svg" xmlns:xlink="http://www.w3.org/1999/xlink">
    <title>icon-righteye</title>
    <g id="Page-1" stroke="none" stroke-width="1" fill="none" fill-rule="evenodd">
        <g id="1.0-homepage" transform="translate(-987.000000, -2797.000000)">
            <g id="Group-5" transform="translate(0.000000, 2565.000000)">
                <g id="icon-righteye" transform="translate(988.000000, 232.000000)">
                    <g id="Group-8" transform="translate(23.000000, 320.000000)">
                        <rect id="Rectangle" fill="#282828" x="0" y="0" width="201" height="34" rx="17"></rect>
                        <path d="M33.096,24 L33.096,20.608 L34.456,20.608 L36.712,24 L40.296,24 L37.624,20.096 C39.016,19.504 39.928,18.368 39.928,16.656 L39.928,16.624 C39.928,15.52 39.592,14.656 38.936,14.016 C38.184,13.248 37,12.8 35.288,12.8 L29.992,12.8 L29.992,24 L33.096,24 Z M35.144,18.176 L33.096,18.176 L33.096,15.488 L35.128,15.488 C36.168,15.488 36.808,15.936 36.808,16.816 L36.808,16.848 C36.808,17.664 36.2,18.176 35.144,18.176 Z M44.1466667,24 L44.1466667,12.8 L41.0266667,12.8 L41.0266667,24 L44.1466667,24 Z M51.3733333,24.224 C53.4053333,24.224 55.0533333,23.472 56.2373333,22.496 L56.2373333,17.456 L51.0853333,17.456 L51.0853333,19.728 L53.2933333,19.728 L53.2933333,21.088 C52.8293333,21.392 52.2533333,21.552 51.5013333,21.552 C49.7253333,21.552 48.4613333,20.256 48.4613333,18.448 L48.4613333,18.416 C48.4613333,16.704 49.7093333,15.344 51.3253333,15.344 C52.4293333,15.344 53.2293333,15.728 54.0293333,16.4 L55.8533333,14.208 C54.6693333,13.184 53.2773333,12.576 51.3093333,12.576 C47.8373333,12.576 45.2773333,15.136 45.2773333,18.4 L45.2773333,18.432 C45.2773333,21.824 47.8853333,24.224 51.3733333,24.224 Z M60.536,24 L60.536,19.744 L64.52,19.744 L64.52,24 L67.624,24 L67.624,12.8 L64.52,12.8 L64.52,16.992 L60.536,16.992 L60.536,12.8 L57.432,12.8 L57.432,24 L60.536,24 Z M74.9146667,24 L74.9146667,15.52 L78.2746667,15.52 L78.2746667,12.8 L68.4506667,12.8 L68.4506667,15.52 L71.8106667,15.52 L71.8106667,24 L74.9146667,24 Z M92.088,24 L92.088,21.36 L86.072,21.36 L86.072,19.584 L91.448,19.584 L91.448,17.136 L86.072,17.136 L86.072,15.44 L92.008,15.44 L92.008,12.8 L83,12.8 L83,24 L92.088,24 Z M99.4906667,24 L99.4906667,19.76 L103.746667,12.8 L100.274667,12.8 L97.9546667,16.88 L95.6506667,12.8 L92.1146667,12.8 L96.3706667,19.808 L96.3706667,24 L99.4906667,24 Z M113.261333,24 L113.261333,21.36 L107.245333,21.36 L107.245333,19.584 L112.621333,19.584 L112.621333,17.136 L107.245333,17.136 L107.245333,15.44 L113.181333,15.44 L113.181333,12.8 L104.173333,12.8 L104.173333,24 L113.261333,24 Z M121.314667,24 L121.314667,20.8 L122.850667,20.8 C125.634667,20.8 127.666667,19.408 127.666667,16.768 L127.666667,16.736 C127.666667,14.256 125.842667,12.8 123.010667,12.8 L118.210667,12.8 L118.210667,24 L121.314667,24 Z M122.786667,18.368 L121.314667,18.368 L121.314667,15.408 L122.770667,15.408 C123.890667,15.408 124.562667,15.92 124.562667,16.88 L124.562667,16.912 C124.562667,17.792 123.890667,18.368 122.786667,18.368 Z M130.813333,24 L131.613333,22 L135.933333,22 L136.749333,24 L140.077333,24 L135.309333,12.72 L132.317333,12.72 L127.549333,24 L130.813333,24 Z M135.037333,19.584 L132.525333,19.584 L133.789333,16.4 L135.037333,19.584 Z M146.472,24 L146.472,15.52 L149.832,15.52 L149.832,12.8 L140.008,12.8 L140.008,15.52 L143.368,15.52 L143.368,24 L146.472,24 Z M156.050667,24.224 C158.530667,24.224 159.954667,23.152 161.010667,21.696 L158.674667,20.032 C158.002667,20.848 157.314667,21.392 156.146667,21.392 C154.578667,21.392 153.474667,20.08 153.474667,18.4 L153.474667,18.368 C153.474667,16.736 154.578667,15.408 156.146667,15.408 C157.218667,15.408 157.954667,15.92 158.594667,16.72 L160.930667,14.912 C159.938667,13.536 158.466667,12.576 156.178667,12.576 C152.786667,12.576 150.274667,15.136 150.274667,18.4 L150.274667,18.432 C150.274667,21.776 152.850667,24.224 156.050667,24.224 Z M164.909333,24 L164.909333,19.744 L168.893333,19.744 L168.893333,24 L171.997333,24 L171.997333,12.8 L168.893333,12.8 L168.893333,16.992 L164.909333,16.992 L164.909333,12.8 L161.805333,12.8 L161.805333,24 L164.909333,24 Z" id="RIGHTEYEPATCH" fill="#F0F0F0" fill-rule="nonzero"></path>
                    </g>
                    <g id="Group-95">
                        <path d="M102.229474,74.4389474 C102.229474,74.4389474 116.800526,75.4810526 125.274211,75.1810526 C133.750526,74.8836842 138.803158,75.9231579 142.668947,78.8968421 C146.534737,81.8731579 157.687368,94.36 167.200526,97.9310526 C176.716316,101.496842 181.921579,102.538947 181.921579,102.538947 L183.705789,137.775789 C183.705789,137.775789 185.49,153.536316 185.49,154.725789 C185.49,155.915263 185.49,166.470526 185.042632,169.444211 C182.813684,170.333684 175.974211,174.496842 154.713684,168.699474 C133.450526,162.902105 109.516316,151.602105 109.516316,151.602105 C109.516316,151.602105 95.0926316,145.804737 89.2926316,144.765263 C101.187368,81.1284211 102.229474,74.4389474 102.229474,74.4389474" id="Fill-1" fill="#FEAE3A"></path>
                        <path d="M74.4268421,79.6428947 L52.1242105,101.348158 L50.0426316,104.027105 L50.7873684,144.913947 L50.5268421,145.692895 C50.5268421,145.692895 56.5478947,141.342895 70.7084211,142.011316 L84.3136842,76.6692105 C84.3136842,76.6692105 80.7452632,75.7771053 75.84,77.785 L74.0531579,79.9034211" id="Fill-3" fill="#282828"></path>
                        <path d="M50.3507895,154.625 C51.8113158,149.317105 48.6271053,106.059211 50.3507895,103.403947 C50.7718421,102.759211 52.4981579,100.975 54.8639474,98.6513158" id="Stroke-5" stroke="#000000" stroke-width="1.28684211"></path>
                        <path d="M162.551579,48.2207895 C165.225263,49.3707895 167.659474,50.7339474 169.956842,52.2286842" id="Stroke-7" stroke="#000000" stroke-width="1.28684211"></path>
                        <path d="M77.3218421,74.7831579 C76.8981579,75.8621053 76.1613158,76.8936842 75.6139474,78.0936842 C75.3928947,78.5726316 75.1139474,79.0226316 74.7323684,79.3910526 C72.1244737,81.9015789 61.2902632,92.3436842 54.8639474,98.6515789" id="Stroke-9" stroke="#000000" stroke-width="1.28684211"></path>
                        <path d="M88.0655263,57.4131579 C89.4286842,56.0421053 72.0234211,40.4 73.1734211,26.6973684 C73.9023684,18.0421053 75.8286842,6.53947368 78.2155263,6.67368421 C80.605,6.80526316 82.4628947,15.4289474 86.7076316,22.7263158 C90.955,30.0263158 107.939211,37.4578947 107.939211,37.4578947" id="Stroke-11" stroke="#000000" stroke-width="0.644736842"></path>
                        <path d="M125.986842,37.8536842 C125.986842,37.8536842 124.702632,28.03 121.642105,20.8563158 C120.181579,17.4378947 110.863158,2.36421053 112.189474,0.769473684 C113.515789,-0.82 122.005263,2.02736842 126.65,6.27473684 C131.294737,10.5194737 139.013158,16.2194737 143.247368,22.3747368 C147.978947,29.2563158 159.647368,47.2721053 159.647368,47.2721053" id="Stroke-13" stroke="#000000" stroke-width="0.644736842"></path>
                        <path d="M162.551579,48.2207895 C161.543684,47.7865789 160.435789,46.8786842 159.591053,47.1313158" id="Stroke-15" stroke="#000000" stroke-width="1.28684211"></path>
                        <path d="M125.832632,37.4528947 C125.832632,37.4528947 125.685263,37.4660526 124.572105,37.2055263 C122.640526,36.7581579 112.251053,35.9213158 107.843158,37.6923684" id="Stroke-17" stroke="#000000" stroke-width="1.28684211"></path>
                        <path d="M77.3218421,74.7831579 C81.7613158,63.4989474 87.4955263,57.8805263 88.1823684,57.3042105" id="Stroke-19" stroke="#000000" stroke-width="1.28684211"></path>
                        <path d="M166.339474,208.258684 C171.276316,205.192895 175.021053,201.998158 175.826316,202.158684" id="Stroke-21" stroke="#000000" stroke-width="1.28684211"></path>
                        <path d="M131.559737,216.328158 C120.280789,226.412368 95.9965789,239.017632 89.3623684,242.070263 C82.7281579,245.120263 82.7281579,252.420263 82.3307895,257.328158 C81.9334211,262.238684 79.5439474,272.986053 68.7939474,274.446579 C58.0465789,275.907105 52.2097368,272.191316 49.8202632,271.659737" id="Stroke-23" stroke="#000000" stroke-width="0.644736842"></path>
                        <path d="M50.3507895,154.625 C48.8902632,159.932895 47.7692105,162.611842 49.5692105,165.396053" id="Stroke-25" stroke="#000000" stroke-width="1.28684211"></path>
                        <path d="M49.7084211,164.899474 C49.7084211,164.899474 40.5321053,182.754737 34.1636842,196.554737 C27.7926316,210.354737 21.69,221.102105 19.5663158,222.96 C17.4426316,224.820526 20.4847368,228.715263 20.3531579,232.562632 C20.2189474,236.41 24.3426316,250.696842 27.1294737,256.402105 C29.9163158,262.104737 37.3478947,269.31 42.1242105,271.083684 C46.9005263,272.854737 47.4321053,271.128421 49.8189474,271.66" id="Stroke-27" stroke="#000000" stroke-width="0.644736842"></path>
                        <path d="M246.800526,105.131053 C246.800526,105.131053 219.54,84.3205263 202.661053,73.0126316 C189.937368,64.4889474 180.413684,59.0389474 169.955789,52.2284211" id="Stroke-29" stroke="#000000" stroke-width="0.644736842"></path>
                        <path d="M166.339474,208.258684 C163.131579,210.250789 159.278947,212.285 155.044737,213.540263 C144.297368,216.727105 131.560526,216.327105 131.560526,216.327105" id="Stroke-31" stroke="#000000" stroke-width="1.28684211"></path>
                        <path d="M246.800526,280.395789 C211.800526,226.743158 176.808421,202.658947 175.479474,202.393158" id="Stroke-33" stroke="#000000" stroke-width="0.644736842"></path>
                        <path d="M169.956579,52.2297368 C171.777632,53.4613158 180.959211,60.1613158 183.661842,71.9323684 C186.672368,85.0271053 184.985526,124.669211 186.401316,136.477105 C187.817105,148.282368 195.251316,178.400789 175.480263,202.395526" id="Stroke-35" stroke="#000000" stroke-width="1.28684211"></path>
                        <path d="M169.956579,52.2297368 C169.751316,52.0902632 169.635526,52.0192105 169.635526,52.0192105" id="Stroke-37" stroke="#000000" stroke-width="0.644736842"></path>
                        <path d="M49.3421053,164.868421 C49.3421053,164.868421 54.3315789,159.510526 68,165.615789 C81.6657895,171.721053 105.815789,187.110526 109.4,190.960526 C112.981579,194.807895 127.313158,204.144737 131.560526,216.328947" id="Stroke-39" stroke="#000000" stroke-width="1.28684211"></path>
                        <path d="M125.986842,37.8536842 C125.986842,37.8536842 128.123684,44.3326316 132.828947,50.5694737 C137.531579,56.8063158 148.810526,58.9142105 151.065789,60.98 C153.321053,63.0431579 159.955263,61.6563158 161.678947,59.8957895 C163.405263,58.1326316 162.544737,51.2378947 159.592105,47.1589474" id="Stroke-41" stroke="#000000" stroke-width="0.644736842"></path>
                        <path d="M88.0655263,57.4131579 C88.0655263,57.4131579 102.720789,49.3342105 107.939211,37.4578947" id="Stroke-43" stroke="#000000" stroke-width="1.28684211"></path>
                        <path d="M76.9789474,74.8347368 C77.05,74.8347368 77.1736842,74.8136842 77.3210526,74.7821053" id="Stroke-45" stroke="#000000" stroke-width="0.644736842"></path>
                        <path d="M92.5678947,73.0510526 C92.5678947,73.0510526 100.088947,69.8852632 105.949474,70.1484211 C111.81,70.4142105 124.228421,71.1247368 127.288947,70.5905263 C130.349474,70.0589474 139.007368,71.0326316 143.904737,75.0142105" id="Stroke-47" stroke="#000000" stroke-width="0.639473684"></path>
                        <path d="M78.215,72.9997368 C79.8886842,72.6523684 86.2939474,70.5128947 92.5676316,73.0523684" id="Stroke-49" stroke="#000000" stroke-width="0.639473684"></path>
                        <path d="M181.771842,98.2797368 C164.361316,92.7218421 165.216579,92.7481579 161.048158,90.1402632 C155.521842,86.685 148.803421,78.9955263 143.906053,75.0139474" id="Stroke-51" stroke="#000000" stroke-width="0.639473684"></path>
                        <path d="M91.1802632,77.5715789 C91.1802632,77.5715789 98.8671053,74.4057895 104.859211,74.6715789 C110.848684,74.9373684 123.543421,75.6452632 126.672368,75.1136842 C129.801316,74.5821053 138.653947,75.5557895 143.659211,79.5373684" id="Stroke-53" stroke="#000000" stroke-width="0.647368421"></path>
                        <path d="M76.5073684,77.5226316 C78.2178947,77.1726316 84.7678947,75.0331579 91.1810526,77.5726316" id="Stroke-55" stroke="#000000" stroke-width="0.647368421"></path>
                        <path d="M182.366579,102.802895 C164.569211,97.2423684 165.445526,97.2713158 161.182368,94.6634211 C155.532368,91.2081579 148.666579,83.5186842 143.658684,79.5371053" id="Stroke-57" stroke="#000000" stroke-width="0.647368421"></path>
                        <line x1="162.551579" y1="48.2207895" x2="162.551579" y2="48.2181579" id="Stroke-59" stroke="#000000" stroke-width="0.644736842"></line>
                        <path d="M182.067368,100.065789 C181.377895,86.6105263 183.375263,74.1421053 178.001579,64.5921053 C174.235789,57.8973684 163.233158,48.5289474 162.551579,48.2210526" id="Stroke-61" stroke="#000000" stroke-width="0.644736842"></path>
                        <path d="M182.067368,100.065789 C182.175263,102.144737 182.956842,135.802632 184.812105,148.455263 C186.672632,161.102632 185.556842,190.981579 171.385789,204.881579" id="Stroke-63" stroke="#000000" stroke-width="0.644736842"></path>
                        <path d="M48.7047368,159.893158 C53.1573684,156.387895 60.36,157.606316 63.5047368,159.045789 C66.6468421,160.482632 83.3547368,167.490526 93.16,173.166842 C103.794211,179.322105 118.775789,190.937895 123.883684,197.343158 C128.991579,203.748421 139.546842,216.424737 139.546842,216.424737" id="Stroke-65" stroke="#000000" stroke-width="0.634210526"></path>
                        <line x1="54.865" y1="98.6523684" x2="54.865" y2="98.6523684" id="Stroke-67" stroke="#000000" stroke-width="0.644736842"></line>
                        <path d="M125.945789,37.8486842 C125.945789,37.8486842 113.116842,50.1407895 93.0773684,71.9171053 C93.0773684,71.9171053 93.2273684,60.1828947 108.193158,37.4539474" id="Stroke-69" stroke="#000000" stroke-width="0.644736842"></path>
                        <line x1="166.339474" y1="208.258684" x2="166.336842" y2="208.266579" id="Stroke-71" stroke="#000000" stroke-width="0.644736842"></line>
                        <path d="M85.4710526,236.651053 C81.7552632,235.940526 71.4921053,256.201053 70.3421053,259.748421 C69.1921053,263.301053 64.7710526,270.087895 60.8789474,271.661579 C56.9868421,273.23 49.8210526,271.661579 49.8210526,271.661579" id="Stroke-73" stroke="#000000" stroke-width="0.644736842"></path>
                        <path d="M50.3507895,243.283947 C52.0323684,244.876053 55.4823684,242.755 58.2244737,236.633947 C60.9665789,230.510263 58.6665789,223.647105 54.8613158,221.965526 C52.2034211,220.789211 47.7613158,220.960263 45.885,221.518158 C45.0771053,221.757632 45.3771053,222.426053 45.8428947,222.723421 C48.1113158,224.162895 48.2139474,224.133947 48.7244737,225.652368 C49.3060526,227.381316 47.6981579,231.783947 45.2192105,233.289211 C43.9165789,234.081316 43.4218421,235.189211 43.2455263,236.065526 C43.1323684,236.623421 43.5139474,237.112895 44.0613158,237.276053 C45.8297368,237.805 48.9507895,241.957632 50.3507895,243.283947 Z" id="Stroke-75" stroke="#000000" stroke-width="0.644736842"></path>
                        <path d="M122.598421,40.8373684 C122.598421,40.8373684 124.977368,49.7584211 130.774737,56.1505263 C130.774737,56.1505263 135.235263,61.9478947 155.158947,65.9636842 C172.851053,68.64 164.972105,50.0557895 164.972105,50.0557895" id="Stroke-77" stroke="#000000" stroke-width="0.647368421"></path>
                        <polyline id="Stroke-79" stroke="#505050" stroke-width="2.68157895" points="0.341842105 285.766842 0.341842105 49.1010526 82.1602632 49.1010526"></polyline>
                        <polyline id="Stroke-81" stroke="#505050" stroke-width="2.68157895" points="164.798947 49.4131579 221.693684 49.4131579 246.97 49.4131579 246.97 285.765789 0.341052632 285.765789"></polyline>
                        <path d="M50.4394737,150.939737 C50.4394737,150.939737 66.4210526,138.655526 108.673684,156.310789 C150.928947,173.966053 170.134211,180.508158 184.360526,174.355526" id="Stroke-83" stroke="#000000" stroke-width="0.671052632"></path>
                        <path d="M50.4407895,146.033684 C50.4407895,146.033684 66.4223684,133.749474 108.675,151.404737 C150.930263,169.06 170.672368,175.602105 184.898684,169.449474" id="Stroke-85" stroke="#000000" stroke-width="0.671052632"></path>
                        <line x1="84.2389474" y1="76.3713158" x2="70.86" y2="142.087105" id="Stroke-87" stroke="#000000" stroke-width="0.647368421"></line>
                        <line x1="88.3263158" y1="76.9289474" x2="75.0210526" y2="142.086842" id="Stroke-89" stroke="#000000" stroke-width="0.647368421"></line>
                        <line x1="98.0663158" y1="75.3305263" x2="85.5768421" y2="144.02" id="Stroke-91" stroke="#000000" stroke-width="0.647368421"></line>
                        <line x1="102.229474" y1="75.0323684" x2="89.4426316" y2="144.763947" id="Stroke-93" stroke="#000000" stroke-width="0.647368421"></line>
                    </g>
                </g>
            </g>
        </g>
    </g>
</svg>