<?xml version="1.0" encoding="UTF-8"?>
<svg width="24px" height="24px" viewBox="0 0 24 24" version="1.1" xmlns="http://www.w3.org/2000/svg" xmlns:xlink="http://www.w3.org/1999/xlink">
    <title>icon-youtube</title>
    <g id="Page-1" stroke="none" stroke-width="1" fill="none" fill-rule="evenodd">
        <g id="1.0-homepage" transform="translate(-1359.000000, -36.000000)" fill="#FFFFFF">
            <g id="Group-6" transform="translate(52.000000, 36.000000)">
                <path d="M1321.01424,11.7924707 L1318.20651,10.4740523 C1318.09258,10.4089455 1317.99084,10.4048828 1317.90132,10.4618539 C1317.81181,10.5188146 1317.76704,10.6205479 1317.76704,10.7670434 L1317.76704,13.2329566 C1317.76704,13.3631702 1317.81181,13.4567678 1317.90132,13.5137284 C1317.99084,13.5706995 1318.09258,13.5666368 1318.20651,13.50153 L1321.01424,12.2075293 C1321.14446,12.1424225 1321.20956,12.0691799 1321.20956,11.9877912 C1321.20956,11.9064024 1321.14446,11.841306 1321.01424,11.7924707 Z M1319.01221,0 C1317.35198,0 1315.7935,0.313325283 1314.33673,0.93997585 C1312.87995,1.56663683 1311.61038,2.42115086 1310.52798,3.50355961 C1309.44557,4.58596835 1308.58698,5.85553056 1307.95219,7.31230875 C1307.31739,8.76907652 1307,10.3275568 1307,11.9877912 C1307,13.6480235 1307.31739,15.2065027 1307.95219,16.6632746 C1308.58698,18.1200476 1309.44557,19.3896182 1310.52798,20.4720238 C1311.61038,21.5544304 1312.87995,22.4130175 1314.33673,23.0478127 C1315.7935,23.6826074 1317.35198,24 1319.01221,24 C1320.67244,24 1322.23092,23.6826074 1323.68769,23.0478127 C1325.14447,22.4130175 1326.41403,21.5544304 1327.49644,20.4720238 C1328.57885,19.3896182 1329.43744,18.1200476 1330.07223,16.6632746 C1330.70703,15.2065027 1331.02442,13.6480235 1331.02442,11.9877912 C1331.02442,10.3275568 1330.70703,8.76907652 1330.07223,7.31230875 C1329.43744,5.85553056 1328.57885,4.58596835 1327.49644,3.50355961 C1326.41403,2.42115086 1325.14447,1.56663683 1323.68769,0.93997585 C1322.23092,0.313325283 1320.67244,0 1319.01221,0 Z M1319.01221,16.8708029 C1315.9359,16.8708029 1314.12513,16.5981709 1313.57986,16.0528987 C1313.03459,15.5076264 1312.76195,14.1526034 1312.76195,11.9877912 C1312.76195,9.82297368 1313.03459,8.47202273 1313.57986,7.93488623 C1314.12513,7.39776015 1315.9359,7.12919711 1319.01221,7.12919711 C1322.08852,7.12919711 1323.89928,7.39776015 1324.44456,7.93488623 C1324.98983,8.47202273 1325.26246,9.82297368 1325.26246,11.9877912 C1325.26246,14.1526034 1324.98983,15.5076264 1324.44456,16.0528987 C1323.89928,16.5981709 1322.08852,16.8708029 1319.01221,16.8708029 Z" id="icon-youtube"></path>
            </g>
        </g>
    </g>
</svg>