<?xml version="1.0" encoding="UTF-8"?>
<svg width="140px" height="140px" viewBox="0 0 140 140" version="1.1" xmlns="http://www.w3.org/2000/svg" xmlns:xlink="http://www.w3.org/1999/xlink">
    <title>icon-melatonin</title>
    <g id="icon-melatonin" stroke="none" stroke-width="1" fill="none" fill-rule="evenodd">
        <g transform="translate(8.000000, 8.000000)" fill="#FEAE3A" id="Fill-1">
            <path d="M62,0 C53.4426567,0 45.390014,1.61458333 37.8417982,4.84375 C30.2935823,8.07291667 23.7142198,12.4927933 18.1035143,18.103535 C12.4928088,23.714225 8.07293217,30.2935617 4.84375,37.8418033 C1.61456732,45.3899933 0,53.4426567 0,62 C0,70.5573433 1.61456732,78.609986 4.84375,86.1582018 C8.07293217,93.7064177 12.4928088,100.28578 18.1035143,105.896486 C23.7142198,111.507191 30.2935823,115.927068 37.8417982,119.15625 C45.390014,122.385433 53.4426567,124 62,124 C70.5573433,124 78.6100067,122.385433 86.1581967,119.15625 C93.7064383,115.927068 100.285775,111.507191 105.896465,105.896486 C111.507207,100.28578 115.927083,93.7064177 119.15625,86.1582018 C122.385417,78.609986 124,70.5573433 124,62 C124,53.4426567 122.385417,45.3899933 119.15625,37.8418033 C115.927083,30.2935617 111.507207,23.714225 105.896465,18.103535 C100.285775,12.4927933 93.7064383,8.07291667 86.1581967,4.84375 C78.6100067,1.61458333 70.5573433,0 62,0 Z M87.539215,63.4664382 C86.8223362,64.2664483 85.9262759,64.6664278 84.8509832,64.6664278 C83.7757415,64.6664278 82.8796813,64.2664483 82.1628025,63.4664382 L66.39203,47.6262374 L66.39203,88.3067403 C66.39203,89.3467586 66.0136844,90.2467636 65.2569932,91.0067758 C64.5003529,91.766788 63.6042927,92.146789 62.5688124,92.146789 C61.5333322,92.146789 60.6372719,91.766788 59.8806317,91.0067758 C59.1239405,90.2467636 58.7455949,89.3467586 58.7455949,88.3067403 L58.7455949,47.6262374 L42.9748224,63.4664382 C42.257964,64.2664483 41.3619088,64.6664278 40.2866212,64.6664278 C39.2113388,64.6664278 38.3152785,64.2664483 37.5984201,63.4664382 C36.8019165,62.7464034 36.4036697,61.8463984 36.4036697,60.7663719 C36.4036697,59.6863967 36.8019165,58.7863916 37.5984201,58.0663569 L59.2234971,36.3460687 C59.7013993,35.8660627 60.2390456,35.5460586 60.8364361,35.3860566 C61.4337756,35.2260545 62.0112344,35.2260545 62.5688124,35.3860566 C63.1263905,35.2260545 63.7038493,35.2260545 64.3011888,35.3860566 C64.8985793,35.5460586 65.4362256,35.8660627 65.9141278,36.3460687 L87.539215,58.0663569 C88.3357186,58.7863916 88.733945,59.6863967 88.733945,60.7663719 C88.733945,61.8463984 88.3357186,62.7464034 87.539215,63.4664382 Z"></path>
        </g>
    </g>
</svg>