<?xml version="1.0" encoding="UTF-8"?>
<svg width="24px" height="24px" viewBox="0 0 24 24" version="1.1" xmlns="http://www.w3.org/2000/svg" xmlns:xlink="http://www.w3.org/1999/xlink">
    <title>icon-facebook</title>
    <g id="Page-1" stroke="none" stroke-width="1" fill="none" fill-rule="evenodd">
        <g id="1.0-homepage" transform="translate(-1291.000000, -36.000000)" fill="#FFFFFF">
            <g id="Group-6" transform="translate(52.000000, 36.000000)">
                <path d="M1259.48438,3.51562 C1257.14061,1.17186 1254.31252,0 1251,0 C1247.68748,0 1244.85939,1.17186 1242.51562,3.51562 C1240.17186,5.85939 1239,8.68748 1239,12 C1239,15.312517 1240.17186,18.140613 1242.51562,20.484375 C1244.85939,22.828137 1247.68748,24 1251,24 C1254.31252,24 1257.14061,22.828137 1259.48438,20.484375 C1261.82814,18.140613 1263,15.312517 1263,12 C1263,8.68748 1261.82814,5.85939 1259.48438,3.51562 Z M1254.09375,12 L1252.125,12 L1252.125,19.21875 L1249.45312,19.21875 L1249.45312,12 L1247.625,12 L1247.625,9.51562 L1249.45312,9.51562 L1249.45312,8.0625 C1249.45312,6.96874 1249.65625,6.14844 1250.0625,5.60156 C1250.46875,5.05468 1251.23437,4.78125 1252.35938,4.78125 L1254.32812,4.78125 L1254.32812,7.26562 L1253.10938,7.26562 C1252.67187,7.26562 1252.39844,7.34375 1252.28906,7.5 C1252.17969,7.65625 1252.125,7.92187 1252.125,8.29688 L1252.125,9.51562 L1254.375,9.51562 L1254.09375,12 Z" id="icon-facebook"></path>
            </g>
        </g>
    </g>
</svg>