<?xml version="1.0" encoding="UTF-8"?>
<svg width="24px" height="24px" viewBox="0 0 24 24" version="1.1" xmlns="http://www.w3.org/2000/svg" xmlns:xlink="http://www.w3.org/1999/xlink">
    <title>icon-instagram</title>
    <g id="Page-1" stroke="none" stroke-width="1" fill="none" fill-rule="evenodd">
        <g id="1.0-homepage" transform="translate(-1325.000000, -36.000000)" fill="#FFFFFF">
            <g id="Group-6" transform="translate(52.000000, 36.000000)">
                <path d="M1288.44223,11.7370492 C1288.44223,12.7569696 1288.08367,13.6254919 1287.36654,14.3426274 C1286.6494,15.059762 1285.78088,15.4183241 1284.76096,15.4183241 C1283.74104,15.4183241 1282.87251,15.059762 1282.15538,14.3426274 C1281.43824,13.6254919 1281.07968,12.7569696 1281.07968,11.7370492 C1281.07968,11.6414317 1281.08765,11.5418263 1281.10359,11.4382432 C1281.11952,11.3346601 1281.13546,11.2350547 1281.15139,11.1394371 L1279.86056,11.1394371 L1279.86056,16.0159332 C1279.86056,16.191233 1279.92032,16.3386421 1280.03984,16.4581645 C1280.15936,16.5776869 1280.30677,16.6374482 1280.48207,16.6374482 L1289.03984,16.6374482 C1289.21514,16.6374482 1289.36255,16.5776869 1289.48208,16.4581645 C1289.60159,16.3386421 1289.66136,16.191233 1289.66136,16.0159332 L1289.66136,11.1394371 L1288.37052,11.1394371 C1288.38646,11.2350547 1288.40239,11.3346601 1288.41833,11.4382432 C1288.43426,11.5418263 1288.44223,11.6414317 1288.44223,11.7370492 Z M1284.76096,14.1992001 C1285.43028,14.1992001 1286.00398,13.9601594 1286.48207,13.4820697 C1286.96016,13.0039841 1287.19921,12.4223133 1287.19921,11.7370492 C1287.19921,11.0677265 1286.96016,10.4940214 1286.48207,10.0159337 C1286.00398,9.53784606 1285.43028,9.29879713 1284.76096,9.29879713 C1284.09163,9.29879713 1283.51793,9.53784606 1283.03984,10.0159337 C1282.56175,10.4940214 1282.32271,11.0677265 1282.32271,11.7370492 C1282.32271,12.4223133 1282.56175,13.0039841 1283.03984,13.4820697 C1283.51793,13.9601594 1284.09163,14.1992001 1284.76096,14.1992001 Z M1287.70119,9.17928287 L1289.15936,9.17928287 C1289.27092,9.17928287 1289.36255,9.14342247 1289.43426,9.07171187 C1289.50597,9.00000127 1289.54183,8.90836143 1289.54183,8.79681275 L1289.54183,7.33864287 C1289.54183,7.24302534 1289.50597,7.15936127 1289.43426,7.08765068 C1289.36255,7.01592988 1289.27092,6.98007968 1289.15936,6.98007968 L1287.70119,6.98007968 C1287.60558,6.98007968 1287.51793,7.01592988 1287.43825,7.08765068 C1287.35856,7.15936127 1287.31872,7.24302534 1287.31872,7.33864287 L1287.31872,8.79681275 C1287.33466,8.90836143 1287.37849,9.00000127 1287.4502,9.07171187 C1287.52191,9.14342247 1287.60558,9.17928287 1287.70119,9.17928287 Z M1284.76096,0 C1283.13545,0 1281.60957,0.306771633 1280.18327,0.9203149 C1278.75696,1.53386837 1277.51395,2.370509 1276.45418,3.43027761 C1275.39442,4.49004622 1274.55379,5.73305371 1273.93227,7.15936127 C1273.31075,8.58565865 1273,10.111541 1273,11.7370492 C1273,13.3625554 1273.31075,14.8884368 1273.93227,16.3147382 C1274.55379,17.7410407 1275.39442,18.9840564 1276.45418,20.0438219 C1277.51395,21.1035885 1278.75696,21.944217 1280.18327,22.5657345 C1281.60957,23.1872515 1283.13545,23.4980054 1284.76096,23.4980054 C1286.38646,23.4980054 1287.91235,23.1872515 1289.33864,22.5657345 C1290.76495,21.944217 1292.00796,21.1035885 1293.06773,20.0438219 C1294.1275,18.9840564 1294.96812,17.7410407 1295.58964,16.3147382 C1296.21116,14.8884368 1296.52191,13.3625554 1296.52191,11.7370492 C1296.52191,10.111541 1296.21116,8.58565865 1295.58964,7.15936127 C1294.96812,5.73305371 1294.1275,4.49004622 1293.06773,3.43027761 C1292.00796,2.370509 1290.76495,1.53386837 1289.33864,0.9203149 C1287.91235,0.306771633 1286.38646,0 1284.76096,0 Z M1290.88048,16.4940208 C1290.88048,16.876493 1290.74901,17.1991989 1290.48605,17.4621486 C1290.22311,17.7250983 1289.9004,17.8565712 1289.51793,17.8565712 L1280.00398,17.8565712 C1279.62151,17.8565712 1279.29881,17.7250983 1279.03586,17.4621486 C1278.77291,17.1991989 1278.64143,16.876493 1278.64143,16.4940208 L1278.64143,6.98007968 C1278.64143,6.61354072 1278.77291,6.29481562 1279.03586,6.02390438 C1279.29881,5.75298295 1279.62151,5.61752733 1280.00398,5.61752733 L1289.51793,5.61752733 C1289.9004,5.61752733 1290.22311,5.75298295 1290.48605,6.02390438 C1290.74901,6.29481562 1290.88048,6.61354072 1290.88048,6.98007968 L1290.88048,16.4940208 Z" id="icon-instagram"></path>
            </g>
        </g>
    </g>
</svg>