<?xml version="1.0" encoding="UTF-8"?>
<svg width="139px" height="21px" viewBox="0 0 139 21" version="1.1" xmlns="http://www.w3.org/2000/svg" xmlns:xlink="http://www.w3.org/1999/xlink">
    <title>XpertEquine</title>
    <g id="Page-1" stroke="none" stroke-width="1" fill="none" fill-rule="evenodd">
        <g id="1.0-homepage" transform="translate(-52.000000, -40.000000)" fill="#FFFFFF" fill-rule="nonzero">
            <g id="Group-6" transform="translate(52.000000, 34.000000)">
                <path d="M5.267,23 L8.372,18.147 L11.454,23 L16.583,23 L11.063,14.766 L16.353,6.9 L11.339,6.9 L8.464,11.431 L5.612,6.9 L0.483,6.9 L5.773,14.812 L0.253,23 L5.267,23 Z M21.6123333,26.68 L21.6123333,21.482 C22.4173333,22.425 23.5213333,23.276 25.4073333,23.276 C28.3513333,23.276 30.9043333,20.815 30.9043333,16.767 L30.9043333,16.721 C30.9043333,12.742 28.3513333,10.281 25.3843333,10.281 C23.5213333,10.281 22.4633333,11.178 21.6123333,12.213 L21.6123333,10.557 L17.2423333,10.557 L17.2423333,26.68 L21.6123333,26.68 Z M24.0503333,19.619 C22.6473333,19.619 21.5203333,18.446 21.5203333,16.79 L21.5203333,16.744 C21.5203333,15.111 22.6473333,13.938 24.0503333,13.938 C25.4763333,13.938 26.6033333,15.111 26.6033333,16.744 L26.6033333,16.79 C26.6033333,18.469 25.4763333,19.619 24.0503333,19.619 Z M38.1876667,23.299 C40.6716667,23.299 42.3966667,22.287 43.5926667,20.769 L41.1776667,18.768 C40.2806667,19.642 39.4526667,20.033 38.4176667,20.033 C37.0606667,20.033 36.0716667,19.343 35.7266667,17.986 L44.0526667,17.986 C44.0756667,17.687 44.0756667,17.365 44.0756667,17.089 C44.0756667,13.432 42.0976667,10.281 37.7966667,10.281 C34.1166667,10.281 31.5176667,13.156 31.5176667,16.79 L31.5176667,16.836 C31.5176667,20.7 34.2776667,23.299 38.1876667,23.299 Z M39.9816667,15.755 L35.6576667,15.755 C35.8876667,14.398 36.6696667,13.501 37.8196667,13.501 C39.0156667,13.501 39.8206667,14.375 39.9816667,15.755 Z M49.542,23 L49.542,19.136 C49.542,16.261 50.83,14.95 53.107,14.95 L53.475,14.95 L53.475,10.35 C51.405,10.258 50.255,11.362 49.542,13.064 L49.542,10.557 L45.172,10.557 L45.172,23 L49.542,23 Z M59.1943333,23.253 C60.4133333,23.253 61.4483333,22.977 62.2303333,22.54 L62.2303333,19.113 C61.7013333,19.366 61.1493333,19.527 60.5743333,19.527 C59.7693333,19.527 59.3783333,19.159 59.3783333,18.285 L59.3783333,14.076 L62.2763333,14.076 L62.2763333,10.557 L59.3783333,10.557 L59.3783333,7.406 L55.0083333,7.406 L55.0083333,10.557 L53.5363333,10.557 L53.5363333,14.076 L55.0083333,14.076 L55.0083333,19.136 C55.0083333,22.103 56.5723333,23.253 59.1943333,23.253 Z M76.7126667,23 L76.7126667,19.205 L68.0646667,19.205 L68.0646667,16.652 L75.7926667,16.652 L75.7926667,13.133 L68.0646667,13.133 L68.0646667,10.695 L76.5976667,10.695 L76.5976667,6.9 L63.6486667,6.9 L63.6486667,23 L76.7126667,23 Z M91.172,26.68 L91.172,10.557 L86.802,10.557 L86.802,12.075 C85.974,11.132 84.87,10.281 82.984,10.281 C80.04,10.281 77.51,12.742 77.51,16.79 L77.51,16.836 C77.51,20.815 80.063,23.276 83.007,23.276 C84.87,23.276 85.951,22.379 86.802,21.344 L86.802,26.68 L91.172,26.68 Z M84.341,19.619 C82.938,19.619 81.788,18.446 81.788,16.79 L81.788,16.744 C81.788,15.088 82.938,13.938 84.341,13.938 C85.744,13.938 86.871,15.111 86.871,16.744 L86.871,16.79 C86.871,18.446 85.744,19.619 84.341,19.619 Z M96.8913333,23.276 C98.6623333,23.276 99.8123333,22.333 100.617333,21.298 L100.617333,23 L104.987333,23 L104.987333,10.557 L100.617333,10.557 L100.617333,17.296 C100.617333,18.653 99.8353333,19.389 98.8003333,19.389 C97.7423333,19.389 97.0293333,18.653 97.0293333,17.296 L97.0293333,10.557 L92.6593333,10.557 L92.6593333,18.699 C92.6593333,21.528 94.2463333,23.276 96.8913333,23.276 Z M111.120667,9.43 L111.120667,6.21 L106.566667,6.21 L106.566667,9.43 L111.120667,9.43 Z M111.028667,23 L111.028667,10.557 L106.658667,10.557 L106.658667,23 L111.028667,23 Z M117.07,23 L117.07,16.261 C117.07,14.904 117.852,14.168 118.91,14.168 C119.945,14.168 120.658,14.904 120.658,16.261 L120.658,23 L125.028,23 L125.028,14.858 C125.028,12.029 123.441,10.281 120.796,10.281 C119.025,10.281 117.875,11.27 117.07,12.305 L117.07,10.557 L112.7,10.557 L112.7,23 L117.07,23 Z M132.679333,23.299 C135.163333,23.299 136.888333,22.287 138.084333,20.769 L135.669333,18.768 C134.772333,19.642 133.944333,20.033 132.909333,20.033 C131.552333,20.033 130.563333,19.343 130.218333,17.986 L138.544333,17.986 C138.567333,17.687 138.567333,17.365 138.567333,17.089 C138.567333,13.432 136.589333,10.281 132.288333,10.281 C128.608333,10.281 126.009333,13.156 126.009333,16.79 L126.009333,16.836 C126.009333,20.7 128.769333,23.299 132.679333,23.299 Z M134.473333,15.755 L130.149333,15.755 C130.379333,14.398 131.161333,13.501 132.311333,13.501 C133.507333,13.501 134.312333,14.375 134.473333,15.755 Z" id="XpertEquine"></path>
            </g>
        </g>
    </g>
</svg>