<?xml version="1.0" encoding="UTF-8"?>
<svg width="175px" height="87px" viewBox="0 0 175 87" version="1.1" xmlns="http://www.w3.org/2000/svg" xmlns:xlink="http://www.w3.org/1999/xlink">
    <title>Group 38</title>
    <defs>
        <polygon id="path-1" points="0 86.4224537 175 86.4224537 175 0 0 0"></polygon>
    </defs>
    <g id="Page-1" stroke="none" stroke-width="1" fill="none" fill-rule="evenodd">
        <g id="1.0-homepage" transform="translate(-53.000000, -316.000000)">
            <g id="Group-37" transform="translate(53.000000, 316.000000)">
                <path d="M22.141713,79.0136343 C21.1686806,78.6992824 20.2742361,78.4489352 20.2742361,77.8518287 L20.2742361,77.8210417 C20.2742361,77.3349306 20.697963,76.9889815 21.4352315,76.9889815 C22.1255093,76.9889815 22.9737731,77.2871296 23.7742361,77.7740509 L24.5277083,76.4242824 C23.6486574,75.8433796 22.5184491,75.4828472 21.4822222,75.4828472 C19.8343056,75.4828472 18.5315278,76.4396759 18.5315278,78.0090046 L18.5315278,78.041412 C18.5315278,79.6261343 19.8966898,80.1284491 21.1216898,80.473588 C22.0947222,80.7717361 22.9737731,80.9912963 22.9737731,81.6353935 L22.9737731,81.6661806 C22.9737731,82.2154861 22.5022454,82.5614352 21.6863889,82.5614352 C20.8389352,82.5614352 19.8659028,82.2154861 18.9706481,81.5406019 L18.1240046,82.8279861 C19.1594213,83.6446528 20.4621991,84.0675694 21.6393981,84.0675694 C23.3659028,84.0675694 24.7156713,83.2047222 24.7156713,81.4620139 L24.7156713,81.4304167 C24.7156713,79.9404861 23.3505093,79.3911806 22.141713,79.0136343" id="Fill-1" fill="#FEFEFE"></path>
                <path d="M28.0812616,73.3479282 L26.1821875,73.3479282 L26.1821875,75.6237384 L25.1297569,75.6237384 L25.1297569,77.2554514 L26.1821875,77.2554514 L26.1821875,81.6191088 C26.1821875,83.4404051 27.1706134,84.0520949 28.5673727,84.0520949 C29.2738542,84.0520949 29.806956,83.8957292 30.2784838,83.6275579 L30.2784838,82.0744329 C29.9017477,82.263206 29.5250116,82.3571875 29.1012847,82.3571875 C28.4579977,82.3571875 28.0812616,82.0590394 28.0812616,81.3217708 L28.0812616,77.2554514 L30.3092708,77.2554514 L30.3092708,75.6237384 L28.0812616,75.6237384 L28.0812616,73.3479282 Z" id="Fill-3" fill="#FEFEFE"></path>
                <path d="M37.5728241,79.8143403 C37.5728241,81.2426968 36.5989815,82.4514931 35.06125,82.4514931 C33.5859028,82.4514931 32.5342824,81.2273032 32.5342824,79.7827431 L32.5342824,79.751956 C32.5342824,78.308206 33.5073148,77.1148032 35.0296528,77.1148032 C36.5212037,77.1148032 37.5728241,78.3227894 37.5728241,79.7827431 L37.5728241,79.8143403 Z M35.06125,75.4506829 C32.5180787,75.4506829 30.6352083,77.4129514 30.6352083,79.7827431 L30.6352083,79.8143403 C30.6352083,82.1687384 32.5026852,84.0994097 35.0296528,84.0994097 C37.5882176,84.0994097 39.4718981,82.1371412 39.4718981,79.7827431 L39.4718981,79.751956 C39.4718981,77.3813542 37.6044213,75.4506829 35.06125,75.4506829 L35.06125,75.4506829 Z" id="Fill-5" fill="#FEFEFE"></path>
                <path d="M42.4541088,77.4913773 L42.4541088,75.6230903 L40.5542245,75.6230903 L40.5542245,83.9112847 L42.4541088,83.9112847 L42.4541088,80.7556134 C42.4541088,78.5583912 43.6159144,77.4751736 45.2792245,77.4751736 L45.3894097,77.4751736 L45.3894097,75.4667245 C43.929456,75.4035301 42.9718171,76.251794 42.4541088,77.4913773" id="Fill-7" fill="#FEFEFE"></path>
                <path d="M51.112963,80.9132755 C51.112963,81.9486921 50.1715278,82.6551736 48.9157407,82.6551736 C48.0212963,82.6551736 47.3148148,82.2152431 47.3148148,81.4309838 L47.3148148,81.4001968 C47.3148148,80.5989236 48.0212963,80.1128125 49.2138889,80.1128125 C49.9519676,80.1128125 50.6268519,80.2537847 51.112963,80.4417477 L51.112963,80.9132755 Z M49.3078704,75.4971875 C47.9581019,75.4971875 47.0636574,75.7807523 46.1530093,76.1882755 L46.6715278,77.7114236 C47.4241898,77.3970718 48.1152778,77.1929051 49.0413194,77.1929051 C50.3594907,77.1929051 51.0813657,77.8216088 51.0813657,78.9672106 L51.0813657,79.1243866 C50.4380787,78.9194097 49.7947917,78.7776273 48.790162,78.7776273 C46.8594907,78.7776273 45.4311343,79.6574884 45.4311343,81.4941782 L45.4311343,81.5249653 C45.4311343,83.1890856 46.8125,84.0835301 48.3818287,84.0835301 C49.6376157,84.0835301 50.5012731,83.5658218 51.0659722,82.8909375 L51.0659722,83.9109606 L52.9496528,83.9109606 L52.9496528,78.9979977 C52.9496528,76.7853819 51.75625,75.4971875 49.3078704,75.4971875 L49.3078704,75.4971875 Z" id="Fill-9" fill="#FEFEFE"></path>
                <path d="M56.5318866,73.3479282 L54.6320023,73.3479282 L54.6320023,75.6237384 L53.5803819,75.6237384 L53.5803819,77.2554514 L54.6320023,77.2554514 L54.6320023,81.6191088 C54.6320023,83.4404051 55.6212384,84.0520949 57.0179977,84.0520949 C57.7244792,84.0520949 58.257581,83.8957292 58.7291088,83.6275579 L58.7291088,82.0744329 C58.3523727,82.263206 57.9756366,82.3571875 57.5519097,82.3571875 C56.9078125,82.3571875 56.5318866,82.0590394 56.5318866,81.3217708 L56.5318866,77.2554514 L58.7598958,77.2554514 L58.7598958,75.6237384 L56.5318866,75.6237384 L56.5318866,73.3479282 Z" id="Fill-11" fill="#FEFEFE"></path>
                <mask id="mask-2" fill="white">
                    <use xlink:href="#path-1"></use>
                </mask>
                <g id="Clip-14"></g>
                <polygon id="Fill-13" fill="#FEFEFE" mask="url(#mask-2)" points="59.7414352 74.3523148 61.7814815 74.3523148 61.7814815 72.546412 59.7414352 72.546412"></polygon>
                <polygon id="Fill-15" fill="#FEFEFE" mask="url(#mask-2)" points="59.8200231 83.9108796 61.7190972 83.9108796 61.7190972 75.6234954 59.8200231 75.6234954"></polygon>
                <path d="M69.7642361,79.8143403 C69.7642361,81.2426968 68.7912037,82.4514931 67.252662,82.4514931 C65.7773148,82.4514931 64.7265046,81.2273032 64.7265046,79.7827431 L64.7265046,79.751956 C64.7265046,78.308206 65.6987269,77.1148032 67.2210648,77.1148032 C68.7126157,77.1148032 69.7642361,78.3227894 69.7642361,79.7827431 L69.7642361,79.8143403 Z M67.252662,75.4506829 C64.7103009,75.4506829 62.8266204,77.4129514 62.8266204,79.7827431 L62.8266204,79.8143403 C62.8266204,82.1687384 64.6940972,84.0994097 67.2210648,84.0994097 C69.7804398,84.0994097 71.6633102,82.1371412 71.6633102,79.7827431 L71.6633102,79.751956 C71.6633102,77.3813542 69.7958333,75.4506829 67.252662,75.4506829 L67.252662,75.4506829 Z" id="Fill-16" fill="#FEFEFE" mask="url(#mask-2)"></path>
                <path d="M77.2359259,75.4509259 C75.9485417,75.4509259 75.1796759,76.1258102 74.6465741,76.9108796 L74.6465741,75.6234954 L72.7466898,75.6234954 L72.7466898,83.9108796 L74.6465741,83.9108796 L74.6465741,79.2336806 C74.6465741,77.9462963 75.4154398,77.1774306 76.5140509,77.1774306 C77.6442593,77.1774306 78.2875463,77.9155093 78.2875463,79.2020833 L78.2875463,83.9108796 L80.1866204,83.9108796 L80.1866204,78.6373843 C80.1866204,76.706713 79.1034028,75.4509259 77.2359259,75.4509259" id="Fill-17" fill="#FEFEFE" mask="url(#mask-2)"></path>
                <polygon id="Fill-18" fill="#FEFEFE" mask="url(#mask-2)" points="87.7675231 79.2335995 93.2767824 79.2335995 93.2767824 77.5070949 87.7675231 77.5070949 87.7675231 74.6503819 93.9832639 74.6503819 93.9832639 72.9238773 85.8368519 72.9238773 85.8368519 83.9107986 94.0618519 83.9107986 94.0618519 82.1851042 87.7675231 82.1851042"></polygon>
                <path d="M110.368044,80.3009375 C110.368044,81.5883218 109.599178,82.3571875 108.500567,82.3571875 C107.371169,82.3571875 106.727072,81.6191088 106.727072,80.3325347 L106.727072,75.6237384 L104.827187,75.6237384 L104.827187,80.8972338 C104.827187,82.8279051 105.910405,84.0836921 107.778692,84.0836921 C109.066076,84.0836921 109.834942,83.4088079 110.368044,82.6237384 L110.368044,83.9111227 L112.267928,83.9111227 L112.267928,75.6237384 L110.368044,75.6237384 L110.368044,80.3009375 Z" id="Fill-19" fill="#FEFEFE" mask="url(#mask-2)"></path>
                <polygon id="Fill-20" fill="#FEFEFE" mask="url(#mask-2)" points="113.802662 74.3523148 115.842708 74.3523148 115.842708 72.546412 113.802662 72.546412"></polygon>
                <polygon id="Fill-21" fill="#FEFEFE" mask="url(#mask-2)" points="113.88125 83.9108796 115.780324 83.9108796 115.780324 75.6234954 113.88125 75.6234954"></polygon>
                <path d="M121.859387,75.4509259 C120.572002,75.4509259 119.802326,76.1258102 119.269225,76.9108796 L119.269225,75.6234954 L117.37015,75.6234954 L117.37015,83.9108796 L119.269225,83.9108796 L119.269225,79.2336806 C119.269225,77.9462963 120.03809,77.1774306 121.136701,77.1774306 C122.26691,77.1774306 122.910197,77.9155093 122.910197,79.2020833 L122.910197,83.9108796 L124.810081,83.9108796 L124.810081,78.6373843 C124.810081,76.706713 123.726863,75.4509259 121.859387,75.4509259" id="Fill-22" fill="#FEFEFE" mask="url(#mask-2)"></path>
                <polygon id="Fill-23" fill="#FEFEFE" mask="url(#mask-2)" points="144.532662 78.1195949 141.189838 72.9238773 139.133588 72.9238773 139.133588 83.9107986 141.033472 83.9107986 141.033472 76.0633449 144.470278 81.2104514 144.532662 81.2104514 148.001875 76.0317477 148.001875 83.9107986 149.932546 83.9107986 149.932546 72.9238773 147.876296 72.9238773"></polygon>
                <path d="M163.568854,79.0136343 C162.596632,78.6992824 161.701377,78.4489352 161.701377,77.8518287 L161.701377,77.8210417 C161.701377,77.3349306 162.125104,76.9889815 162.863183,76.9889815 C163.553461,76.9889815 164.400914,77.2871296 165.202187,77.7740509 L165.95485,76.4242824 C165.075799,75.8433796 163.9464,75.4828472 162.910174,75.4828472 C161.262257,75.4828472 159.959479,76.4396759 159.959479,78.0090046 L159.959479,78.041412 C159.959479,79.6261343 161.323831,80.1284491 162.548831,80.473588 C163.521863,80.7717361 164.400914,80.9912963 164.400914,81.6353935 L164.400914,81.6661806 C164.400914,82.2154861 163.929387,82.5614352 163.11353,82.5614352 C162.266887,82.5614352 161.293044,82.2154861 160.3986,81.5406019 L159.551146,82.8279861 C160.587373,83.6446528 161.89015,84.0675694 163.06735,84.0675694 C164.793854,84.0675694 166.143623,83.2047222 166.143623,81.4620139 L166.143623,81.4304167 C166.143623,79.9404861 164.77765,79.3911806 163.568854,79.0136343" id="Fill-24" fill="#FEFEFE" mask="url(#mask-2)"></path>
                <polygon id="Fill-25" fill="#FEFEFE" mask="url(#mask-2)" points="171.593981 78.9978356 174.889815 75.6234144 172.583218 75.6234144 169.145602 79.296794 169.145602 72.4531597 167.246528 72.4531597 167.246528 83.9107986 169.145602 83.9107986 169.145602 81.5410069 170.307407 80.3322106 172.802778 83.9107986 175 83.9107986"></polygon>
                <path d="M1.93059028,78.3704282 L1.93059028,74.6816551 L4.73950231,74.6816551 C6.16866898,74.6816551 7.01612269,75.3249421 7.01612269,76.5021412 L7.01612269,76.5337384 C7.01612269,77.6477431 6.13707176,78.3704282 4.75570602,78.3704282 L1.93059028,78.3704282 Z M8.97758102,76.4243634 L8.97758102,76.3927662 C8.97758102,75.4351273 8.64864583,74.6192708 8.06774306,74.0229745 C7.36126157,73.3318866 6.27804398,72.9235532 4.89667824,72.9235532 L-8.10185185e-05,72.9235532 L-8.10185185e-05,83.9112847 L1.93059028,83.9112847 L1.93059028,80.0807292 L4.31577546,80.0807292 L4.34737269,80.0807292 L7.04690972,83.9112847 L9.32353009,83.9112847 L6.35663194,79.751794 C7.89436343,79.3118634 8.97758102,78.229456 8.97758102,76.4243634 L8.97758102,76.4243634 Z" id="Fill-26" fill="#FEFEFE" mask="url(#mask-2)"></path>
                <path d="M11.6191898,79.1861227 C11.7917593,77.8995486 12.6084259,77.0051042 13.7694213,77.0051042 C15.0252083,77.0051042 15.7478935,77.9619329 15.872662,79.1861227 L11.6191898,79.1861227 Z M13.7848148,75.451169 C11.4158333,75.451169 9.73631944,77.3972338 9.73631944,79.7670255 L9.73631944,79.7994329 C9.73631944,82.3571875 11.5875926,84.0990856 13.9897917,84.0990856 C15.5121296,84.0990856 16.5953472,83.4873958 17.3796065,82.5451505 L16.2656019,81.5567245 C15.6061111,82.2000116 14.9466204,82.5451505 14.0205787,82.5451505 C12.7963889,82.5451505 11.83875,81.7916782 11.6345833,80.4419097 L17.7247454,80.4419097 C17.7401389,80.2531366 17.7563426,80.0805671 17.7563426,79.9088079 C17.7563426,77.5220023 16.4227778,75.451169 13.7848148,75.451169 L13.7848148,75.451169 Z" id="Fill-27" fill="#FEFEFE" mask="url(#mask-2)"></path>
                <path d="M101.467917,79.782662 C101.467917,81.3681944 100.337708,82.4352083 99.067338,82.4352083 C97.7799537,82.4352083 96.6813426,81.3843981 96.6813426,79.782662 L96.6813426,79.751875 C96.6813426,78.1031481 97.7645602,77.0985185 99.067338,77.0985185 C100.337708,77.0985185 101.467917,78.1501389 101.467917,79.751875 L101.467917,79.782662 Z M101.43713,76.9105556 C100.840833,76.1416898 99.9771759,75.4506019 98.6120139,75.4506019 C96.6335417,75.4506019 94.766875,77.004537 94.766875,79.751875 L94.766875,79.782662 C94.766875,82.53 96.6651389,84.0839352 98.6120139,84.0839352 C99.9617824,84.0839352 100.82544,83.3928472 101.43713,82.53 L101.43713,86.4221296 L103.337014,86.4221296 L103.337014,75.6231713 L101.43713,75.6231713 L101.43713,76.9105556 Z" id="Fill-28" fill="#FEFEFE" mask="url(#mask-2)"></path>
                <path d="M127.72294,79.1861227 C127.895509,77.8995486 128.712176,77.0051042 129.873171,77.0051042 C131.128958,77.0051042 131.850833,77.9619329 131.976412,79.1861227 L127.72294,79.1861227 Z M129.888565,75.451169 C127.518773,75.451169 125.839259,77.3972338 125.839259,79.7670255 L125.839259,79.7994329 C125.839259,82.3571875 127.691343,84.0990856 130.093542,84.0990856 C131.61588,84.0990856 132.699097,83.4873958 133.482546,82.5451505 L132.368542,81.5567245 C131.709861,82.2000116 131.04956,82.5451505 130.124329,82.5451505 C128.899329,82.5451505 127.9425,81.7916782 127.738333,80.4419097 L133.828495,80.4419097 C133.843889,80.2531366 133.860093,80.0805671 133.860093,79.9088079 C133.860093,77.5220023 132.525718,75.451169 129.888565,75.451169 L129.888565,75.451169 Z" id="Fill-29" fill="#FEFEFE" mask="url(#mask-2)"></path>
                <path d="M156.936273,80.9132755 C156.936273,81.9486921 155.994838,82.6551736 154.739051,82.6551736 C153.844606,82.6551736 153.138125,82.2152431 153.138125,81.4309838 L153.138125,81.4001968 C153.138125,80.5989236 153.844606,80.1128125 155.037199,80.1128125 C155.774468,80.1128125 156.449352,80.2537847 156.936273,80.4417477 L156.936273,80.9132755 Z M155.131181,75.4971875 C153.781412,75.4971875 152.886968,75.7807523 151.976319,76.1882755 L152.494838,77.7114236 C153.2475,77.3970718 153.938588,77.1929051 154.86463,77.1929051 C156.181991,77.1929051 156.904676,77.8216088 156.904676,78.9672106 L156.904676,79.1243866 C156.261389,78.9194097 155.618102,78.7776273 154.613472,78.7776273 C152.682801,78.7776273 151.254444,79.6574884 151.254444,81.4941782 L151.254444,81.5249653 C151.254444,83.1890856 152.635,84.0835301 154.205139,84.0835301 C155.460926,84.0835301 156.323773,83.5658218 156.889282,82.8909375 L156.889282,83.9109606 L158.772963,83.9109606 L158.772963,78.9979977 C158.772963,76.7853819 157.57956,75.4971875 155.131181,75.4971875 L155.131181,75.4971875 Z" id="Fill-30" fill="#FEFEFE" mask="url(#mask-2)"></path>
                <polygon id="Fill-31" fill="#FEAE3A" mask="url(#mask-2)" points="64.1597801 27.3010532 64.1597801 5.59457176 104.737905 5.59457176 104.737905 0.000243055556 58.2016782 0.000243055556 58.2016782 30.6503588 63.3163773 24.0311458"></polygon>
                <polygon id="Fill-32" fill="#FEAE3A" mask="url(#mask-2)" points="61.6299769 32.2361343 58.2020833 36.6727083 58.2020833 64.9141435 105.192824 64.9141435 105.192824 59.3198148 64.1601852 59.3198148 64.1601852 36.2659954 62.8703704 37.042963"></polygon>
                <polygon id="Fill-33" fill="#FEAE3A" mask="url(#mask-2)" points="168.759144 0 143.519444 37.1875 118.460417 0.268981481 118.278125 0 112.881481 0 112.881481 29.369213 112.881481 33.9232639 112.881481 64.9144676 118.658102 64.9144676 118.658102 10.9609954 142.922338 46.2640046 143.932639 46.2640046 168.197685 10.9609954 168.197685 64.9144676 174.156597 64.9144676 174.156597 0"></polygon>
                <path d="M6.29643519,5.59457176 L27.4276852,5.59457176 C38.4940046,5.59457176 45.1010648,10.5682986 45.1010648,18.9010532 L45.1010648,19.0825347 C45.1010648,20.2556829 44.957662,21.3664468 44.6959722,22.4172569 C44.1207407,25.0017477 42.3999074,28.9619329 37.4334722,31.8000116 L44.327338,32.9075347 C48.658588,29.5679514 51.0591667,24.7578819 51.0591667,18.9010532 L51.0591667,18.7195718 C51.0591667,7.5228125 41.6715509,0.000243055556 27.6999074,0.000243055556 L0.338333333,0.000243055556 L0.338333333,64.9147106 L6.29643519,64.9147106 L6.29643519,5.59457176 Z" id="Fill-34" fill="#FEAE3A" mask="url(#mask-2)"></path>
                <polygon id="Fill-35" fill="#FEAE3A" mask="url(#mask-2)" points="46.5342824 64.9145486 54.0609028 64.9145486 32.4751389 37.4006597 27.5743287 39.0834144"></polygon>
                <polygon id="Fill-36" fill="#FEFEFE" mask="url(#mask-2)" points="109.742176 31.6518287 106.375856 27.8852778 102.926088 33.2908333 100.211157 26.4366667 97.501088 30.6455787 93.5368519 22.0568056 90.5764352 32.7156019 87.5058333 25.1800694 80.7723843 36.0300694 77.3039815 32.1671065 71.7525926 34.6276389 69.1340741 28.9652546 65.200625 31.3374769 64.159537 27.3011343 63.3161343 24.0312269 58.2014352 30.6504398 57.194375 31.954838 54.7152083 23.9145602 48.8810648 33.6635185 44.3270139 32.9076157 37.4331481 31.8000926 37.432338 31.8000926 28.918912 34.7572685 24.4296759 28.8218519 19.3303704 33.8441898 11.1094213 33.8441898 11.1094213 37.5264815 20.8397454 37.5264815 24.0237731 34.3894444 27.5740046 39.0828472 32.475625 37.4000926 37.7515509 35.5885185 50.7534028 37.7071528 53.6311806 32.8978935 55.7660185 39.8241667 58.2014352 36.6725463 61.6301389 32.2359722 62.8705324 37.0428009 64.159537 36.2658333 67.5169444 34.2411806 69.9321065 39.4636343 76.3512037 36.6174537 81.3119676 42.1437269 86.8228472 33.2640972 91.2359259 44.0970833 94.3988889 32.7131713 96.9655556 38.2750926 99.4268981 34.4558796 102.153981 41.3448843 106.866829 33.9608565 109.216366 36.5890972 112.881644 33.9227778 112.881644 29.369537"></polygon>
            </g>
        </g>
    </g>
</svg>